<?xml version="1.0" encoding="UTF-8"?>
<svg xmlns="http://www.w3.org/2000/svg" xmlns:xlink="http://www.w3.org/1999/xlink" width="450pt" height="199.58pt" viewBox="0 0 450 199.58" version="1.1">
<defs>
<clipPath id="clip1">
  <path d="M 0 124 L 72 124 L 72 199.578125 L 0 199.578125 Z M 0 124 "/>
</clipPath>
<clipPath id="clip2">
  <path d="M 117 124 L 189 124 L 189 199.578125 L 117 199.578125 Z M 117 124 "/>
</clipPath>
<clipPath id="clip3">
  <path d="M 310 124 L 383 124 L 383 199.578125 L 310 199.578125 Z M 310 124 "/>
</clipPath>
</defs>
<g id="surface1">
<path style=" stroke:none;fill-rule:nonzero;fill:rgb(88.198853%,14.498901%,10.998535%);fill-opacity:1;" d="M 113.429688 124.183594 C 110.226563 124.183594 107.433594 124.808594 105.09375 126.019531 C 102.789063 127.207031 100.144531 129.382813 97.167969 132.570313 L 97.167969 126.382813 L 80.648438 126.382813 L 80.648438 197.757813 L 97.957031 197.757813 L 97.945313 160.636719 C 97.945313 147.03125 101.59375 140.210938 110.421875 140.210938 C 111.949219 140.210938 113.511719 140.550781 115.082031 141.164063 C 117.921875 136.261719 121.203125 131.652344 124.878906 127.40625 C 120.921875 125.3125 117.101563 124.183594 113.429688 124.183594 "/>
<path style=" stroke:none;fill-rule:nonzero;fill:rgb(88.198853%,14.498901%,10.998535%);fill-opacity:1;" d="M 423.59375 159.988281 L 446.988281 126.371094 L 427.253906 126.371094 L 413.703125 145.832031 L 400.113281 126.371094 L 380.066406 126.371094 L 403.703125 160.1875 L 377.570313 197.757813 L 397.308594 197.757813 L 413.578125 174.359375 L 429.941406 197.757813 L 450 197.757813 "/>
<g clip-path="url(#clip1)" clip-rule="nonzero">
<path style=" stroke:none;fill-rule:nonzero;fill:rgb(88.198853%,14.498901%,10.998535%);fill-opacity:1;" d="M 49.894531 177.285156 C 46.339844 181.214844 41.855469 183.152344 36.453125 183.164063 C 31.21875 183.160156 26.804688 181.164063 23.234375 177.167969 C 19.65625 173.179688 17.863281 168.089844 17.863281 161.917969 C 17.863281 155.765625 19.632813 150.746094 23.144531 146.820313 C 26.667969 142.890625 31.082031 140.953125 36.40625 140.953125 C 41.855469 140.953125 46.359375 142.882813 49.917969 146.726563 C 53.476563 150.59375 54.628906 154.992188 54.617188 161.210938 C 54.617188 167.574219 53.464844 173.371094 49.894531 177.285156 M 54.480469 134.179688 C 51.410156 130.96875 48.070313 128.546875 44.457031 126.949219 C 40.851563 125.324219 36.964844 124.523438 32.859375 124.515625 C 23.910156 124.515625 16.3125 128.039063 10.042969 135.074219 C 3.78125 142.117188 0.660156 151.144531 0.648438 162.164063 C 0.648438 172.792969 3.875 181.695313 10.339844 188.832031 C 16.804688 195.992188 24.46875 199.578125 33.328125 199.578125 C 37.285156 199.585938 40.957031 198.851563 44.332031 197.390625 C 47.71875 195.921875 51.09375 193.535156 54.457031 190.195313 L 54.457031 197.757813 L 71.765625 197.757813 L 71.765625 126.382813 L 54.480469 126.382813 "/>
</g>
<g clip-path="url(#clip2)" clip-rule="nonzero">
<path style=" stroke:none;fill-rule:nonzero;fill:rgb(88.198853%,14.498901%,10.998535%);fill-opacity:1;" d="M 166.441406 177.285156 C 162.882813 181.214844 158.390625 183.152344 153.007813 183.164063 C 147.761719 183.160156 143.351563 181.164063 139.769531 177.167969 C 136.191406 173.179688 134.398438 168.089844 134.410156 161.917969 C 134.421875 155.765625 136.167969 150.746094 139.691406 146.820313 C 143.214844 142.890625 147.628906 140.953125 152.949219 140.953125 C 158.390625 140.953125 162.894531 142.882813 166.464844 146.726563 C 170.023438 150.59375 171.160156 154.992188 171.148438 161.210938 C 171.148438 167.574219 170.011719 173.371094 166.441406 177.285156 M 171.023438 134.179688 C 167.957031 130.96875 164.605469 128.546875 161.011719 126.949219 C 157.386719 125.324219 153.523438 124.523438 149.394531 124.515625 C 140.464844 124.515625 132.847656 128.039063 126.589844 135.074219 C 120.328125 142.117188 117.203125 151.144531 117.191406 162.164063 C 117.183594 172.792969 120.40625 181.695313 126.886719 188.832031 C 133.351563 195.992188 141.011719 199.578125 149.882813 199.578125 C 153.828125 199.585938 157.503906 198.851563 160.863281 197.390625 C 164.253906 195.921875 167.628906 193.535156 170.988281 190.195313 L 170.988281 197.757813 L 188.300781 197.757813 L 188.300781 126.382813 L 171.023438 126.382813 "/>
</g>
<path style=" stroke:none;fill-rule:nonzero;fill:rgb(88.198853%,14.498901%,10.998535%);fill-opacity:1;" d="M 292.449219 128.125 L 292.453125 128.125 C 288.734375 125.761719 284.433594 124.582031 279.53125 124.582031 C 274.789063 124.578125 270.441406 125.679688 266.441406 127.890625 C 262.449219 130.085938 259.089844 133.296875 256.328125 137.542969 C 254.230469 133.296875 251.449219 130.074219 247.992188 127.875 C 244.515625 125.664063 240.636719 124.5625 236.328125 124.546875 C 232.0625 124.546875 228.128906 125.382813 224.515625 127.066406 C 220.898438 128.734375 217.617188 131.261719 214.664063 134.660156 L 214.664063 126.382813 L 197.34375 126.382813 L 197.316406 197.757813 L 214.628906 197.757813 L 214.640625 166.089844 C 214.648438 159.246094 215.230469 154.226563 216.394531 151.039063 C 217.570313 147.855469 219.324219 145.386719 221.675781 143.609375 C 224.035156 141.855469 226.644531 140.964844 229.53125 140.964844 C 232.105469 140.96875 234.320313 141.667969 236.144531 143.066406 C 237.96875 144.46875 239.324219 146.597656 240.238281 149.453125 C 241.148438 152.3125 241.605469 156.917969 241.605469 163.304688 L 241.574219 197.757813 L 258.902344 197.757813 L 258.902344 165.65625 C 258.929688 158.847656 259.496094 153.910156 260.640625 150.839844 C 261.789063 147.761719 263.546875 145.359375 265.894531 143.609375 C 268.230469 141.867188 270.910156 141 273.890625 141 C 277.789063 141 280.695313 142.433594 282.65625 145.277344 C 284.617188 148.148438 285.585938 153.617188 285.585938 161.671875 L 285.5625 197.757813 L 302.871094 197.757813 L 302.894531 155.957031 C 302.894531 147.382813 302.085938 141.1875 300.464844 137.390625 C 298.847656 133.578125 296.179688 130.488281 292.449219 128.125 "/>
<g clip-path="url(#clip3)" clip-rule="nonzero">
<path style=" stroke:none;fill-rule:nonzero;fill:rgb(88.198853%,14.498901%,10.998535%);fill-opacity:1;" d="M 334.128906 143.914063 C 337.765625 141.152344 341.992188 139.777344 346.808594 139.789063 C 351.265625 139.789063 355.164063 141.011719 358.503906 143.46875 C 361.882813 145.9375 364.128906 149.125 365.265625 153.050781 L 327.785156 153.027344 C 329.726563 148.679688 331.847656 145.632813 334.128906 143.914063 M 363.316406 176.722656 C 358.6875 181.472656 353.148438 183.847656 346.703125 183.847656 C 341.300781 183.839844 336.886719 182.308594 333.398438 179.273438 C 329.917969 176.238281 327.785156 172.148438 326.976563 166.996094 L 382.507813 167.03125 L 382.574219 163.632813 C 382.574219 151.875 379.191406 142.421875 372.394531 135.238281 C 365.609375 128.074219 356.78125 124.488281 345.929688 124.476563 C 335.710938 124.476563 327.203125 128.0625 320.441406 135.273438 C 313.660156 142.457031 310.273438 151.5 310.273438 162.386719 C 310.261719 173.027344 313.660156 181.859375 320.433594 188.925781 C 327.203125 196.003906 336.007813 199.53125 346.796875 199.53125 C 353.75 199.539063 359.746094 198.261719 364.820313 195.699219 C 369.875 193.148438 374.21875 189.183594 377.84375 183.847656 "/>
</g>
<path style=" stroke:none;fill-rule:nonzero;fill:rgb(88.198853%,14.498901%,10.998535%);fill-opacity:1;" d="M 416.917969 77.003906 L 436.375 77.003906 L 436.375 -0.00390625 L 416.917969 -0.00390625 Z M 416.917969 77.003906 "/>
<path style=" stroke:none;fill-rule:nonzero;fill:rgb(88.198853%,14.498901%,10.998535%);fill-opacity:1;" d="M 386.335938 95.035156 C 390.609375 92.84375 394.28125 89.71875 396.691406 85.058594 C 400.199219 78.320313 400.914063 73.113281 400.914063 65.601563 L 400.914063 17.207031 L 381.402344 17.207031 L 381.347656 59.410156 C 381.347656 65.878906 381.566406 74.371094 376.414063 79.085938 C 374.550781 80.730469 372.304688 81.882813 369.945313 82.648438 L 381.511719 97.0625 C 383.15625 96.460938 384.800781 95.804688 386.335938 95.035156 "/>
<path style=" stroke:none;fill-rule:nonzero;fill:rgb(88.198853%,14.498901%,10.998535%);fill-opacity:1;" d="M 345.777344 77.003906 L 365.234375 77.003906 L 365.234375 -0.00390625 L 345.777344 -0.00390625 Z M 345.777344 77.003906 "/>
<path style=" stroke:none;fill-rule:nonzero;fill:rgb(88.198853%,14.498901%,10.998535%);fill-opacity:1;" d="M 303.1875 60.066406 C 299.570313 60.066406 296.558594 58.753906 294.089844 56.230469 C 291.625 53.652344 290.363281 50.367188 290.363281 46.363281 C 290.363281 42.417969 291.570313 39.128906 293.980469 36.609375 C 296.394531 34.089844 299.460938 32.828125 303.132813 32.773438 C 306.808594 32.773438 309.820313 34.03125 312.234375 36.609375 C 314.644531 39.128906 315.851563 42.417969 315.851563 46.363281 C 315.90625 50.3125 314.699219 53.652344 312.234375 56.230469 C 309.765625 58.753906 306.753906 60.066406 303.1875 60.066406 M 324.621094 67.738281 C 329.992188 62.09375 332.675781 55.023438 332.675781 46.527344 C 332.675781 37.761719 330.101563 30.578125 324.894531 24.988281 C 314.699219 13.917969 293.597656 14.082031 282.855469 24.769531 C 276.496094 31.128906 273.425781 37.703125 273.425781 46.527344 L 273.425781 48.171875 C 273.425781 49.269531 273.480469 50.199219 273.425781 51.132813 C 273.316406 54.203125 272.988281 55.628906 270.742188 57.875 C 268.769531 59.847656 266.136719 59.847656 263.398438 59.847656 L 261.589844 59.847656 C 259.726563 53.765625 256.546875 47.078125 251.941406 42.691406 C 244.707031 35.785156 235.554688 32.277344 224.097656 32.277344 L 186.71875 32.277344 C 187.980469 28.277344 190.390625 24.222656 194.007813 21.480469 C 197.734375 18.632813 201.902344 17.589844 206.503906 17.425781 L 239.664063 17.425781 L 239.664063 1.804688 L 206.503906 1.804688 C 195.214844 2.1875 185.898438 5.804688 178.660156 12.765625 C 170.988281 20.109375 167.152344 31.621094 167.152344 43.679688 L 167.207031 47.351563 L 224.152344 47.351563 C 228.757813 47.515625 232.8125 48.832031 236.375 51.1875 C 240.160156 53.710938 241.910156 58.203125 241.910156 59.847656 L 149.285156 59.847656 C 150.378906 55.738281 150.984375 50.035156 150.984375 42.746094 L 150.984375 17.371094 L 131.472656 17.371094 L 131.472656 36.5 C 131.472656 40.664063 131.414063 49.871094 130.429688 53.929688 C 129.441406 57.929688 127.691406 59.957031 123.03125 59.957031 L 113.382813 59.957031 C 114.535156 55.847656 115.082031 50.09375 115.082031 42.746094 L 115.082031 17.371094 L 95.570313 17.371094 L 95.570313 36.5 C 95.570313 40.664063 95.515625 49.871094 94.527344 53.929688 C 93.542969 57.929688 91.84375 59.957031 87.128906 59.957031 L 79.019531 59.957031 L 79.019531 17.371094 L 59.507813 17.371094 L 59.507813 59.519531 C 59.507813 65.984375 59.726563 74.480469 54.519531 79.195313 C 47.941406 85.171875 36.433594 85.003906 29.253906 80.621094 C 21.03125 75.523438 18.945313 65.328125 20.042969 56.339844 C 20.535156 52.613281 21.523438 49.324219 23.058594 46.527344 L 3.765625 40.28125 C 2.285156 43.898438 1.1875 47.953125 0.53125 52.394531 C -3.632813 80.785156 17.027344 104.957031 51.175781 99.3125 C 51.558594 99.257813 51.941406 99.144531 52.324219 99.089844 C 61.535156 97.226563 70.304688 93.773438 74.742188 85.171875 C 76.277344 82.15625 77.320313 79.796875 77.921875 77.058594 L 87.128906 77.058594 C 90.199219 77.058594 92.664063 76.839844 94.914063 76.289063 C 97.816406 75.578125 100.667969 74.535156 103.300781 72.945313 C 104.011719 72.507813 104.667969 72.070313 105.273438 71.578125 L 105.273438 77.058594 L 122.976563 77.058594 C 126.046875 77.058594 128.511719 76.839844 130.757813 76.289063 C 133.71875 75.578125 136.566406 74.535156 139.089844 72.945313 L 139.910156 72.398438 L 139.910156 77.058594 L 259.339844 77.058594 C 263.945313 77.058594 268.496094 77.058594 272.933594 75.632813 C 275.015625 74.976563 277.101563 73.933594 278.964844 72.78125 C 280.554688 71.796875 281.921875 70.699219 283.128906 69.441406 C 291.074219 76.398438 303.1875 78.316406 313.21875 74.867188 C 317.605469 73.332031 321.496094 71.085938 324.621094 67.738281 "/>
</g>
</svg>
