<?xml version="1.0" encoding="UTF-8"?>
<svg xmlns="http://www.w3.org/2000/svg" xmlns:xlink="http://www.w3.org/1999/xlink" width="140.75pt" height="141.07pt" viewBox="0 0 140.75 141.07" version="1.1">
<g id="surface1">
<path style=" stroke:none;fill-rule:nonzero;fill:rgb(84.298706%,12.199402%,21.598816%);fill-opacity:1;" d="M 2.496094 0.730469 C 3.855469 -0.078125 5.515625 0.0703125 7.023438 0.00390625 C 49.734375 0.0625 92.445313 -0.0195313 135.144531 0.0429688 C 138.375 -0.296875 141.027344 2.871094 140.726563 5.972656 C 140.726563 49.023438 140.726563 92.074219 140.714844 135.121094 C 140.996094 138.191406 138.375 141.34375 135.164063 141.003906 C 92.09375 141.042969 49.015625 141.011719 5.945313 141.023438 C 2.566406 141.492188 -0.40625 138.441406 0.046875 135.082031 C 0.0546875 92.003906 0.0351563 48.914063 0.0546875 5.832031 C -0.0742188 3.851563 0.726563 1.773438 2.496094 0.730469 "/>
<path style=" stroke:none;fill-rule:nonzero;fill:rgb(100%,100%,100%);fill-opacity:1;" d="M 66.464844 28.0625 C 66.496094 26.910156 66.527344 25.761719 66.566406 24.613281 C 78.464844 23.902344 90.644531 27.550781 99.765625 35.320313 C 110.015625 43.792969 115.925781 56.902344 116.214844 70.121094 C 116.175781 84.101563 109.765625 98.0625 98.625 106.632813 C 89.644531 113.820313 77.945313 117.101563 66.535156 116.421875 C 66.484375 106.671875 66.554688 96.921875 66.496094 87.183594 C 75.496094 86.863281 84.566406 83.421875 90.59375 76.574219 C 97.746094 69.03125 99.894531 57.421875 96.246094 47.753906 C 91.765625 35.710938 79.105469 28.011719 66.464844 28.0625 "/>
<path style=" stroke:none;fill-rule:nonzero;fill:rgb(100%,100%,100%);fill-opacity:1;" d="M 32.945313 43.992188 C 38.15625 36.460938 45.777344 30.84375 54.214844 27.390625 C 54.234375 56.152344 54.226563 84.902344 54.214844 113.652344 C 42.753906 109.082031 33.035156 100.113281 28.253906 88.664063 C 22.027344 74.28125 23.796875 56.753906 32.945313 43.992188 "/>
</g>
</svg>
