<?xml version="1.0" encoding="UTF-8" standalone="no"?>
<svg
   xmlns:dc="http://purl.org/dc/elements/1.1/"
   xmlns:cc="http://creativecommons.org/ns#"
   xmlns:rdf="http://www.w3.org/1999/02/22-rdf-syntax-ns#"
   xmlns:svg="http://www.w3.org/2000/svg"
   xmlns="http://www.w3.org/2000/svg"
   viewBox="0 0 816 1056"
   height="1056"
   width="816"
   xml:space="preserve"
   id="svg2"
   version="1.1"><metadata
     id="metadata8"><rdf:RDF><cc:Work
         rdf:about=""><dc:format>image/svg+xml</dc:format><dc:type
           rdf:resource="http://purl.org/dc/dcmitype/StillImage" /></cc:Work></rdf:RDF></metadata><defs
     id="defs6" /><g
     transform="matrix(1.3333333,0,0,-1.3333333,0,1056)"
     id="g10"><path
       id="path12"
       style="fill:#ffffff;fill-opacity:1;fill-rule:nonzero;stroke:none"
       d="m 355.40527,369.43164 h -122 v 122.00195 h 122 z" /><path
       id="path14"
       style="fill:#2072bf;fill-opacity:1;fill-rule:nonzero;stroke:none"
       d="m 235.23877,433.8042 1.14014,3.7832 h 5.63183 c 1.19727,0 2.13086,-0.33642 2.80127,-1.00683 0.6709,-0.67139 1.00635,-1.60498 1.00635,-2.80127 0,-0.76319 -0.16016,-1.39795 -0.47998,-1.90381 -0.31934,-0.50537 -0.77246,-0.83496 -1.3584,-0.98731 0.79541,-0.19677 1.38818,-0.5664 1.77783,-1.11084 0.39014,-0.54394 0.58496,-1.27588 0.58496,-2.19336 0,-1.29785 -0.36767,-2.27734 -1.10254,-2.93896 -0.73535,-0.66113 -1.8164,-0.9917 -3.24365,-0.9917 h -5.61767 v 10.15088 h -1.14014 m 5.11084,0.48682 v -1.98536 h 0.55518 c 0.34375,0 0.60546,0.0855 0.78564,0.25635 0.17969,0.1709 0.27002,0.41797 0.27002,0.74121 0,0.32276 -0.0903,0.56836 -0.27002,0.73584 -0.18018,0.16748 -0.44189,0.25196 -0.78564,0.25196 h -0.55518 m 0,-4.98194 v -2.20996 h 0.7085 c 0.41015,0 0.72558,0.0962 0.9458,0.28809 0.22021,0.19189 0.33105,0.46435 0.33105,0.81689 0,0.35889 -0.11084,0.63281 -0.33105,0.82178 -0.22022,0.18848 -0.53565,0.2832 -0.9458,0.2832 z" /><path
       id="path16"
       style="fill:#2072bf;fill-opacity:1;fill-rule:nonzero;stroke:none"
       d="m 247.84961,437.5874 h 4.23242 v -10.1499 h 3.2832 l -1.13427,-3.7832 -6.38135,-9.8e-4 c 0,0 0,6.20752 0,10.15088 h -1.146 l 1.14014,3.7832 h 0.006 z" /><path
       id="path18"
       style="fill:#2072bf;fill-opacity:1;fill-rule:nonzero;stroke:none"
       d="m 255.59814,433.8042 1.14014,3.7832 h -10e-4 4.19482 v -7.60205 c 0,-0.88281 0.0884,-1.49121 0.26563,-1.82422 0.17675,-0.33398 0.48046,-0.5 0.91015,-0.5 0.42383,0 0.72754,0.17139 0.91016,0.51465 0.18262,0.34277 0.27392,0.94531 0.27392,1.80957 v 7.60205 h 4.19532 v -7.56347 c 0,-0.98975 -0.0552,-1.80518 -0.16407,-2.44532 -0.10937,-0.64013 -0.28369,-1.17627 -0.52295,-1.60791 -0.46972,-0.86914 -1.10839,-1.53515 -1.91845,-1.99804 -0.81055,-0.46241 -1.73487,-0.69434 -2.77393,-0.69434 -1.04492,0 -1.97168,0.23193 -2.78174,0.69434 -0.81005,0.46289 -1.44873,1.1289 -1.91797,1.99804 -0.23486,0.42481 -0.40478,0.9541 -0.51123,1.58838 -0.10693,0.63477 -0.15966,1.45557 -0.15966,2.46485 0,0 0,2.50732 0,3.78027 h -1.13868 z" /><path
       id="path20"
       style="fill:#2072bf;fill-opacity:1;fill-rule:nonzero;stroke:none"
       d="m 268.53174,433.8042 1.14014,3.7832 h -0.009 7.84423 l -1.12109,-3.7832 h -2.60303 v -1.34863 h 3.37793 l -1.0747,-3.5586 h -2.30323 v -1.46093 h 3.8208 L 276.47,423.65332 h -6.80712 c 0,0 0,6.20752 0,10.15088 h -1.13135 z" /><path
       id="path22"
       style="fill:#21aa52;fill-opacity:1;fill-rule:nonzero;stroke:none"
       d="m 284.90869,437.5874 h 3.39356 c 1.08545,0 2.01171,-0.0718 2.77978,-0.21435 0.76709,-0.14307 1.39209,-0.36328 1.87354,-0.66162 1.01562,-0.63428 1.79492,-1.47559 2.33789,-2.52247 0.54345,-1.04687 0.81494,-2.23974 0.81494,-3.57812 0,-1.33252 -0.27051,-2.51904 -0.81006,-3.55957 -0.54053,-1.04053 -1.3208,-1.88135 -2.34229,-2.52246 -0.49755,-0.3042 -1.12841,-0.52686 -1.89257,-0.66602 -0.76514,-0.14013 -1.78955,-0.20947 -3.07227,-0.20947 h -3.08252 v 10.15088 h 0.006 -1.13135 l 1.12305,3.77685 0.002,0.006 m 4.15772,-9.66406 c 0.96191,0.006 1.66406,0.22607 2.10693,0.66064 0.44287,0.43457 0.66504,1.11524 0.66504,2.04102 0,0.90625 -0.2124,1.58203 -0.63623,2.02588 -0.42432,0.44385 -1.07422,0.6665 -1.94922,0.6665 h -0.18652 z" /><path
       id="path24"
       style="fill:#21aa52;fill-opacity:1;fill-rule:nonzero;stroke:none"
       d="m 299.08154,433.8042 -3.03857,-10.15088 h 4.51611 l 0.35987,1.76025 h 3.17724 l 0.37647,-1.76025 h 4.53027 l -4.09766,13.93408 h -5.81982 l -1.13428,-3.7832 h 1.13086 z" /><path
       id="path26"
       style="fill:#ffffff;fill-opacity:1;fill-rule:nonzero;stroke:none"
       d="m 301.62305,428.70996 h 1.75341 l -0.36035,1.58154 c -0.17627,0.79932 -0.29638,1.41553 -0.36035,1.84766 -0.064,0.43164 -0.104,0.83789 -0.11963,1.21875 h -0.0728 c -0.0161,-0.38086 -0.0561,-0.78711 -0.12012,-1.21875 -0.064,-0.43213 -0.18408,-1.04834 -0.35937,-1.84766 l -0.36084,-1.58154 z" /><path
       id="path28"
       style="fill:#21aa52;fill-opacity:1;fill-rule:nonzero;stroke:none"
       d="m 309.63379,437.5874 h 5.29199 c 1.53906,0 2.71485,-0.40381 3.52735,-1.21142 0.81152,-0.80762 1.21875,-1.97071 1.21875,-3.49024 0,-0.99219 -0.20508,-1.80908 -0.61329,-2.45117 -0.40918,-0.64258 -0.96093,-1.01758 -1.65527,-1.12549 l 3.12988,-5.65576 h -4.72461 l -2.05468,4.5835 v -4.5835 h -4.12012 v 10.14551 l -0.005,0.005 h -1.13086 l 1.13379,3.7832 h 0.002 m 4.12012,-3.59619 v -2.73437 h 0.6582 c 0.40039,0 0.70996,0.11621 0.92676,0.34912 0.21582,0.23291 0.32519,0.56592 0.32519,0.99902 0,0.4458 -0.10937,0.78906 -0.32519,1.02734 -0.2168,0.23926 -0.52637,0.35889 -0.92676,0.35889 z" /><path
       id="path30"
       style="fill:#21aa52;fill-opacity:1;fill-rule:nonzero;stroke:none"
       d="m 322.89551,423.65332 v 10.15088 h -2.41016 l 1.12988,3.7832 h 8.43457 l -1.14453,-3.7832 h -1.81445 v -10.15088 z" /><path
       id="path32"
       style="fill:#2072bf;fill-opacity:1;fill-rule:nonzero;stroke:none"
       d="m 340.89941,430.43213 -9.30175,-10.46387 21.97461,10.46387 -21.97461,10.46484 z" /><path
       id="path34"
       style="fill:#21aa52;fill-opacity:1;fill-rule:nonzero;stroke:none"
       d="m 334.75,430.43213 -2.70703,-7.56006 6.70605,7.56006 -6.70605,7.56055 z" /></g></svg>