<?xml version="1.0" encoding="UTF-8"?>
<svg xmlns="http://www.w3.org/2000/svg" xmlns:xlink="http://www.w3.org/1999/xlink" width="194pt" height="194pt" viewBox="0 0 194 194" version="1.1">
<g id="surface1">
<path style=" stroke:none;fill-rule:evenodd;fill:rgb(100%,100%,100%);fill-opacity:1;" d="M 0.898438 193.488281 L 193.652344 193.488281 L 193.652344 0.730469 L 0.898438 0.730469 L 0.898438 193.488281 "/>
<path style=" stroke:none;fill-rule:evenodd;fill:rgb(2.69928%,33.699036%,59.199524%);fill-opacity:1;" d="M 185.148438 117.113281 L 185.148438 97.59375 L 9.402344 97.59375 L 9.402344 117.113281 Z M 185.148438 96.546875 L 185.148438 77.105469 L 9.402344 77.105469 L 9.402344 96.546875 L 185.148438 96.546875 "/>
<path style=" stroke:none;fill-rule:evenodd;fill:rgb(91.799927%,16.099548%,20.399475%);fill-opacity:1;" d="M 97.277344 80.472656 C 88.054688 80.472656 80.597656 87.929688 80.597656 97.152344 C 80.597656 106.371094 88.054688 113.828125 97.277344 113.828125 C 106.496094 113.828125 114.03125 106.371094 114.03125 97.152344 C 114.03125 87.929688 106.496094 80.472656 97.277344 80.472656 "/>
<path style=" stroke:none;fill-rule:evenodd;fill:rgb(100%,100%,100%);fill-opacity:1;" d="M 92.222656 99.394531 L 93.425781 98.191406 L 107.136719 97.550781 L 107.699219 96.988281 L 94.308594 96.988281 L 86.933594 88.410156 L 111.386719 96.589844 L 103.289063 104.765625 L 86.933594 104.765625 L 88.535156 103.082031 L 102.246094 102.441406 L 102.808594 101.882813 L 89.820313 101.882813 L 91.023438 100.679688 L 104.652344 100.035156 L 105.292969 99.394531 L 92.222656 99.394531 "/>
<path style=" stroke:none;fill-rule:evenodd;fill:rgb(100%,100%,100%);fill-opacity:1;" d="M 120.929688 83.679688 L 122.773438 83.679688 C 124.375 83.679688 125.820313 84.160156 125.820313 85.925781 C 125.820313 87.609375 124.617188 88.25 123.011719 88.25 L 122.371094 88.25 L 122.371094 91.058594 L 120.929688 91.058594 Z M 122.371094 87.128906 L 122.933594 87.128906 C 123.652344 87.128906 124.296875 86.886719 124.296875 86.007813 C 124.296875 85.203125 123.652344 84.882813 122.933594 84.882813 L 122.371094 84.882813 L 122.371094 87.128906 "/>
<path style=" stroke:none;fill-rule:evenodd;fill:rgb(100%,100%,100%);fill-opacity:1;" d="M 132.714844 83.601563 C 135.039063 83.601563 136.320313 85.125 136.320313 87.367188 C 136.320313 89.613281 135.039063 91.136719 132.714844 91.136719 C 130.390625 91.136719 129.1875 89.613281 129.1875 87.367188 C 129.1875 85.125 130.390625 83.601563 132.714844 83.601563 Z M 132.714844 90.015625 C 134.238281 90.015625 134.800781 88.652344 134.800781 87.367188 C 134.800781 86.085938 134.15625 84.722656 132.714844 84.722656 C 131.269531 84.722656 130.710938 86.085938 130.710938 87.367188 C 130.710938 88.652344 131.269531 90.015625 132.714844 90.015625 "/>
<path style=" stroke:none;fill-rule:evenodd;fill:rgb(100%,100%,100%);fill-opacity:1;" d="M 144.257813 85.042969 C 143.777344 84.882813 143.21875 84.722656 142.734375 84.722656 C 142.253906 84.722656 141.613281 84.964844 141.613281 85.765625 C 141.613281 87.046875 144.820313 86.488281 144.820313 88.972656 C 144.820313 90.574219 143.539063 91.136719 142.015625 91.136719 C 141.214844 91.136719 140.890625 91.058594 140.171875 90.894531 L 140.332031 89.535156 C 140.8125 89.855469 141.371094 90.015625 141.933594 90.015625 C 142.496094 90.015625 143.296875 89.695313 143.296875 89.050781 C 143.296875 87.6875 140.089844 88.25 140.089844 85.84375 C 140.089844 84.160156 141.292969 83.601563 142.574219 83.601563 C 143.21875 83.601563 143.859375 83.679688 144.339844 83.839844 L 144.257813 85.042969 "/>
<path style=" stroke:none;fill-rule:evenodd;fill:rgb(100%,100%,100%);fill-opacity:1;" d="M 150.113281 84.882813 L 148.027344 84.882813 L 148.027344 83.679688 L 153.640625 83.679688 L 153.640625 84.882813 L 151.554688 84.882813 L 151.554688 91.058594 L 150.113281 91.058594 L 150.113281 84.882813 "/>
<path style=" stroke:none;fill-rule:evenodd;fill:rgb(100%,100%,100%);fill-opacity:1;" d="M 157.246094 83.679688 L 161.578125 83.679688 L 161.578125 84.882813 L 158.691406 84.882813 L 158.691406 86.648438 L 161.335938 86.648438 L 161.335938 87.851563 L 158.691406 87.851563 L 158.691406 89.855469 L 161.578125 89.855469 L 161.578125 91.058594 L 157.246094 91.058594 L 157.246094 83.679688 "/>
<path style=" stroke:none;fill-rule:evenodd;fill:rgb(100%,100%,100%);fill-opacity:1;" d="M 169.59375 85.042969 C 169.195313 84.882813 168.632813 84.722656 168.152344 84.722656 C 167.589844 84.722656 166.949219 84.964844 166.949219 85.765625 C 166.949219 87.046875 170.15625 86.488281 170.15625 88.972656 C 170.15625 90.574219 168.953125 91.136719 167.429688 91.136719 C 166.628906 91.136719 166.308594 91.058594 165.585938 90.894531 L 165.667969 89.535156 C 166.226563 89.855469 166.789063 90.015625 167.351563 90.015625 C 167.910156 90.015625 168.632813 89.695313 168.632813 89.050781 C 168.632813 87.6875 165.425781 88.25 165.425781 85.84375 C 165.425781 84.160156 166.710938 83.601563 167.992188 83.601563 C 168.632813 83.601563 169.195313 83.679688 169.757813 83.839844 L 169.59375 85.042969 "/>
<path style=" stroke:none;fill-rule:evenodd;fill:rgb(100%,100%,100%);fill-opacity:1;" d="M 126.539063 111.101563 C 126.058594 111.179688 125.496094 111.261719 124.9375 111.261719 C 122.53125 111.261719 120.847656 110.140625 120.847656 107.652344 C 120.847656 105.089844 122.449219 103.726563 124.9375 103.726563 C 125.417969 103.726563 126.058594 103.804688 126.539063 104.046875 L 126.460938 105.25 C 125.898438 104.925781 125.417969 104.847656 124.855469 104.847656 C 123.332031 104.847656 122.449219 106.050781 122.449219 107.492188 C 122.449219 109.015625 123.332031 110.140625 124.9375 110.140625 C 125.496094 110.140625 126.140625 109.980469 126.539063 109.820313 L 126.539063 111.101563 "/>
<path style=" stroke:none;fill-rule:evenodd;fill:rgb(100%,100%,100%);fill-opacity:1;" d="M 132.394531 103.804688 L 133.996094 103.804688 L 136.882813 111.179688 L 135.28125 111.179688 L 134.636719 109.496094 L 131.671875 109.496094 L 131.03125 111.179688 L 129.507813 111.179688 Z M 133.195313 105.328125 L 132.070313 108.375 L 134.238281 108.375 L 133.195313 105.328125 "/>
<path style=" stroke:none;fill-rule:evenodd;fill:rgb(100%,100%,100%);fill-opacity:1;" d="M 140.410156 103.804688 L 142.253906 103.804688 L 144.980469 109.335938 L 145.0625 109.335938 L 145.0625 103.804688 L 146.425781 103.804688 L 146.425781 111.179688 L 144.660156 111.179688 L 141.855469 105.730469 L 141.855469 111.179688 L 140.410156 111.179688 L 140.410156 103.804688 "/>
<path style=" stroke:none;fill-rule:evenodd;fill:rgb(100%,100%,100%);fill-opacity:1;" d="M 152.757813 103.804688 L 154.441406 103.804688 L 157.328125 111.179688 L 155.726563 111.179688 L 155.082031 109.496094 L 152.117188 109.496094 L 151.476563 111.179688 L 149.953125 111.179688 Z M 153.558594 105.328125 L 152.519531 108.375 L 154.683594 108.375 L 153.558594 105.328125 "/>
<path style=" stroke:none;fill-rule:evenodd;fill:rgb(100%,100%,100%);fill-opacity:1;" d="M 160.855469 103.804688 L 162.859375 103.804688 C 165.1875 103.804688 167.109375 104.605469 167.109375 107.492188 C 167.109375 110.378906 165.1875 111.179688 162.859375 111.179688 L 160.855469 111.179688 Z M 162.378906 109.980469 L 163.179688 109.980469 C 164.382813 109.980469 165.585938 109.097656 165.585938 107.492188 C 165.585938 105.890625 164.382813 105.007813 163.179688 105.007813 L 162.378906 105.007813 L 162.378906 109.980469 "/>
<path style=" stroke:none;fill-rule:evenodd;fill:rgb(100%,100%,100%);fill-opacity:1;" d="M 173.203125 103.804688 L 174.886719 103.804688 L 177.773438 111.179688 L 176.089844 111.179688 L 175.449219 109.496094 L 172.480469 109.496094 L 171.839844 111.179688 L 170.316406 111.179688 Z M 174.003906 105.328125 L 172.964844 108.375 L 175.046875 108.375 L 174.003906 105.328125 "/>
<path style=" stroke:none;fill-rule:evenodd;fill:rgb(100%,100%,100%);fill-opacity:1;" d="M 22.953125 90.976563 C 22.390625 91.058594 21.828125 91.136719 21.269531 91.136719 C 18.941406 91.136719 17.257813 90.015625 17.257813 87.527344 C 17.257813 84.964844 18.78125 83.601563 21.269531 83.601563 C 21.75 83.601563 22.390625 83.679688 22.953125 83.921875 L 22.871094 85.125 C 22.308594 84.804688 21.75 84.722656 21.269531 84.722656 C 19.742188 84.722656 18.78125 85.925781 18.78125 87.367188 C 18.78125 88.890625 19.742188 90.015625 21.269531 90.015625 C 21.828125 90.015625 22.550781 89.855469 22.871094 89.695313 L 22.953125 90.976563 "/>
<path style=" stroke:none;fill-rule:evenodd;fill:rgb(100%,100%,100%);fill-opacity:1;" d="M 28.722656 83.679688 L 30.40625 83.679688 L 33.292969 91.058594 L 31.691406 91.058594 L 31.050781 89.371094 L 28.082031 89.371094 L 27.441406 91.058594 L 25.917969 91.058594 Z M 29.605469 85.203125 L 29.527344 85.203125 L 28.484375 88.25 L 30.648438 88.25 L 29.605469 85.203125 "/>
<path style=" stroke:none;fill-rule:evenodd;fill:rgb(100%,100%,100%);fill-opacity:1;" d="M 36.824219 83.679688 L 38.585938 83.679688 L 41.390625 89.214844 L 41.390625 83.679688 L 42.835938 83.679688 L 42.835938 91.058594 L 40.992188 91.058594 L 38.183594 85.605469 L 38.183594 91.058594 L 36.824219 91.058594 L 36.824219 83.679688 "/>
<path style=" stroke:none;fill-rule:evenodd;fill:rgb(100%,100%,100%);fill-opacity:1;" d="M 49.167969 83.679688 L 50.851563 83.679688 L 53.738281 91.058594 L 52.054688 91.058594 L 51.414063 89.371094 L 48.449219 89.371094 L 47.804688 91.058594 L 46.28125 91.058594 Z M 49.972656 85.203125 L 48.929688 88.25 L 51.011719 88.25 L 49.972656 85.203125 "/>
<path style=" stroke:none;fill-rule:evenodd;fill:rgb(100%,100%,100%);fill-opacity:1;" d="M 57.265625 83.679688 L 59.273438 83.679688 C 61.515625 83.679688 63.523438 84.480469 63.523438 87.367188 C 63.523438 90.253906 61.515625 91.058594 59.273438 91.058594 L 57.265625 91.058594 Z M 58.710938 89.855469 L 59.59375 89.855469 C 60.792969 89.855469 61.996094 88.972656 61.996094 87.367188 C 61.996094 85.765625 60.792969 84.882813 59.59375 84.882813 L 58.710938 84.882813 L 58.710938 89.855469 "/>
<path style=" stroke:none;fill-rule:evenodd;fill:rgb(100%,100%,100%);fill-opacity:1;" d="M 69.613281 83.679688 L 71.21875 83.679688 L 74.105469 91.058594 L 72.5 91.058594 L 71.859375 89.371094 L 68.894531 89.371094 L 68.25 91.058594 L 66.726563 91.058594 Z M 70.417969 85.203125 L 70.335938 85.203125 L 69.292969 88.25 L 71.457031 88.25 L 70.417969 85.203125 "/>
<path style=" stroke:none;fill-rule:evenodd;fill:rgb(100%,100%,100%);fill-opacity:1;" d="M 17.5 103.804688 L 19.34375 103.804688 C 20.949219 103.804688 22.390625 104.285156 22.390625 106.050781 C 22.390625 107.734375 21.1875 108.375 19.585938 108.375 L 18.941406 108.375 L 18.941406 111.179688 L 17.5 111.179688 Z M 18.941406 107.253906 L 19.503906 107.253906 C 20.226563 107.253906 20.867188 107.011719 20.867188 106.128906 C 20.867188 105.328125 20.226563 105.007813 19.503906 105.007813 L 18.941406 105.007813 L 18.941406 107.253906 "/>
<path style=" stroke:none;fill-rule:evenodd;fill:rgb(100%,100%,100%);fill-opacity:1;" d="M 29.285156 103.726563 C 31.609375 103.726563 32.894531 105.25 32.894531 107.492188 C 32.894531 109.738281 31.609375 111.261719 29.285156 111.261719 C 26.960938 111.261719 25.757813 109.738281 25.757813 107.492188 C 25.757813 105.25 26.960938 103.726563 29.285156 103.726563 Z M 29.285156 110.140625 C 30.808594 110.140625 31.371094 108.777344 31.371094 107.492188 C 31.371094 106.210938 30.808594 104.847656 29.285156 104.847656 C 27.84375 104.847656 27.28125 106.210938 27.28125 107.492188 C 27.28125 108.777344 27.84375 110.140625 29.285156 110.140625 "/>
<path style=" stroke:none;fill-rule:evenodd;fill:rgb(100%,100%,100%);fill-opacity:1;" d="M 40.832031 105.167969 C 40.351563 105.007813 39.867188 104.847656 39.308594 104.847656 C 38.828125 104.847656 38.183594 105.089844 38.183594 105.890625 C 38.183594 107.171875 41.390625 106.609375 41.390625 109.097656 C 41.390625 110.699219 40.109375 111.261719 38.667969 111.261719 C 37.863281 111.261719 37.464844 111.179688 36.742188 111.019531 L 36.902344 109.65625 C 37.382813 109.980469 37.945313 110.140625 38.507813 110.140625 C 39.066406 110.140625 39.867188 109.820313 39.867188 109.175781 C 39.867188 107.8125 36.660156 108.375 36.660156 105.96875 C 36.660156 104.285156 37.945313 103.726563 39.226563 103.726563 C 39.789063 103.726563 40.429688 103.804688 40.910156 103.964844 L 40.832031 105.167969 "/>
<path style=" stroke:none;fill-rule:evenodd;fill:rgb(100%,100%,100%);fill-opacity:1;" d="M 46.683594 105.007813 L 44.597656 105.007813 L 44.597656 103.804688 L 50.210938 103.804688 L 50.210938 105.007813 L 48.128906 105.007813 L 48.128906 111.179688 L 46.683594 111.179688 L 46.683594 105.007813 "/>
</g>
</svg>
