<?xml version="1.0" encoding="UTF-8"?>
<svg xmlns="http://www.w3.org/2000/svg" xmlns:xlink="http://www.w3.org/1999/xlink" width="162.53pt" height="43.59pt" viewBox="0 0 162.53 43.59" version="1.1">
<defs>
<clipPath id="clip1">
  <path d="M 99 35 L 105 35 L 105 43.589844 L 99 43.589844 Z M 99 35 "/>
</clipPath>
<clipPath id="clip2">
  <path d="M 132 35 L 139 35 L 139 43.589844 L 132 43.589844 Z M 132 35 "/>
</clipPath>
<clipPath id="clip3">
  <path d="M 159 35 L 162.53125 35 L 162.53125 42 L 159 42 Z M 159 35 "/>
</clipPath>
<clipPath id="clip4">
  <path d="M 99 35 L 105 35 L 105 43.589844 L 99 43.589844 Z M 99 35 "/>
</clipPath>
<clipPath id="clip5">
  <path d="M 132 35 L 139 35 L 139 43.589844 L 132 43.589844 Z M 132 35 "/>
</clipPath>
<clipPath id="clip6">
  <path d="M 159 35 L 162.53125 35 L 162.53125 42 L 159 42 Z M 159 35 "/>
</clipPath>
</defs>
<g id="surface1">
<path style=" stroke:none;fill-rule:evenodd;fill:rgb(1.568604%,28.234863%,58.822632%);fill-opacity:1;" d="M 60.585938 35.507813 C 60.074219 35.277344 59.464844 35.148438 58.9375 35.148438 C 57.167969 35.148438 55.980469 36.660156 55.980469 38.4375 C 55.980469 39.320313 56.453125 40.183594 57.757813 40.183594 C 58.179688 40.183594 58.535156 40.113281 58.878906 40.011719 L 59.339844 37.566406 L 60.378906 37.566406 L 59.78125 40.761719 C 59.09375 41.023438 58.269531 41.15625 57.570313 41.15625 C 55.695313 41.15625 54.839844 40.070313 54.839844 38.566406 C 54.839844 36.039063 56.636719 34.195313 59.054688 34.195313 C 59.703125 34.195313 60.339844 34.285156 60.902344 34.464844 L 60.585938 35.507813 "/>
<path style=" stroke:none;fill-rule:evenodd;fill:rgb(1.568604%,28.234863%,58.822632%);fill-opacity:1;" d="M 62.304688 38.929688 C 62.285156 39.058594 62.265625 39.28125 62.265625 39.429688 C 62.265625 40.113281 62.511719 40.292969 63.246094 40.292969 C 63.707031 40.292969 64.210938 40.183594 64.640625 40 L 64.640625 40.84375 C 64.140625 41.035156 63.542969 41.15625 62.902344 41.15625 C 61.726563 41.15625 61.214844 40.625 61.214844 39.5 C 61.214844 37.503906 62.355469 35.96875 63.925781 35.96875 C 65.042969 35.96875 65.425781 36.550781 65.425781 37.144531 C 65.425781 38.265625 64.316406 38.859375 62.304688 38.929688 Z M 63.808594 36.773438 C 63.101563 36.773438 62.628906 37.421875 62.433594 38.1875 C 63.769531 38.136719 64.398438 37.855469 64.398438 37.285156 C 64.398438 36.953125 64.171875 36.773438 63.808594 36.773438 "/>
<path style=" stroke:none;fill-rule:evenodd;fill:rgb(1.568604%,28.234863%,58.822632%);fill-opacity:1;" d="M 69.914063 41.054688 L 68.882813 41.054688 L 69.484375 37.894531 C 69.621094 37.183594 69.492188 36.882813 69.109375 36.882813 C 68.324219 36.882813 67.363281 38.667969 67.144531 39.871094 L 66.929688 41.054688 L 65.898438 41.054688 L 66.390625 38.445313 C 66.546875 37.613281 66.703125 36.742188 66.8125 36.070313 L 67.832031 36.070313 C 67.773438 36.382813 67.648438 36.914063 67.332031 37.84375 L 67.351563 37.855469 C 67.8125 36.871094 68.539063 35.960938 69.523438 35.960938 C 70.445313 35.960938 70.738281 36.632813 70.554688 37.644531 L 69.914063 41.054688 "/>
<path style=" stroke:none;fill-rule:evenodd;fill:rgb(1.568604%,28.234863%,58.822632%);fill-opacity:1;" d="M 72.527344 38.929688 C 72.507813 39.058594 72.488281 39.28125 72.488281 39.429688 C 72.488281 40.113281 72.734375 40.292969 73.46875 40.292969 C 73.929688 40.292969 74.433594 40.183594 74.863281 40 L 74.863281 40.84375 C 74.363281 41.035156 73.765625 41.15625 73.125 41.15625 C 71.949219 41.15625 71.4375 40.625 71.4375 39.5 C 71.4375 37.503906 72.578125 35.96875 74.148438 35.96875 C 75.265625 35.96875 75.648438 36.550781 75.648438 37.144531 C 75.648438 38.265625 74.539063 38.859375 72.527344 38.929688 Z M 74.03125 36.773438 C 73.324219 36.773438 72.851563 37.421875 72.65625 38.1875 C 73.992188 38.136719 74.617188 37.855469 74.617188 37.285156 C 74.617188 36.953125 74.394531 36.773438 74.03125 36.773438 "/>
<path style=" stroke:none;fill-rule:evenodd;fill:rgb(1.568604%,28.234863%,58.822632%);fill-opacity:1;" d="M 79.570313 37.003906 C 78.753906 36.761719 77.839844 38.425781 77.554688 39.949219 L 77.347656 41.054688 L 76.316406 41.054688 L 76.808594 38.445313 C 76.9375 37.746094 77.105469 36.8125 77.230469 36.070313 L 78.234375 36.070313 C 78.164063 36.480469 78.035156 36.972656 77.769531 37.753906 L 77.789063 37.765625 C 78.332031 36.621094 78.890625 35.820313 79.785156 35.96875 L 79.570313 37.003906 "/>
<path style=" stroke:none;fill-rule:evenodd;fill:rgb(1.568604%,28.234863%,58.822632%);fill-opacity:1;" d="M 83.78125 41.054688 L 82.757813 41.054688 C 82.847656 40.644531 83.015625 40.050781 83.28125 39.230469 L 83.257813 39.21875 C 82.886719 39.972656 82.179688 41.164063 81.082031 41.164063 C 80.363281 41.164063 79.96875 40.683594 79.96875 39.621094 C 79.96875 37.765625 80.921875 35.992188 83.0625 35.992188 C 83.632813 35.992188 84.183594 36.039063 84.683594 36.140625 C 84.203125 38.675781 83.988281 39.820313 83.78125 41.054688 Z M 82.886719 36.824219 C 81.582031 36.824219 81.03125 38.277344 81.03125 39.429688 C 81.03125 40 81.199219 40.242188 81.472656 40.242188 C 82.296875 40.242188 83.230469 38.40625 83.449219 37.273438 L 83.515625 36.914063 C 83.339844 36.863281 83.132813 36.824219 82.886719 36.824219 "/>
<path style=" stroke:none;fill-rule:evenodd;fill:rgb(1.568604%,28.234863%,58.822632%);fill-opacity:1;" d="M 86.292969 41.054688 L 85.261719 41.054688 L 86.53125 34.183594 L 87.5625 34.183594 L 86.292969 41.054688 "/>
<path style=" stroke:none;fill-rule:evenodd;fill:rgb(1.568604%,28.234863%,58.822632%);fill-opacity:1;" d="M 93.601563 41.054688 L 90.332031 41.054688 L 91.613281 34.167969 L 92.664063 34.167969 L 91.558594 40.101563 L 93.785156 40.101563 L 93.601563 41.054688 "/>
<path style=" stroke:none;fill-rule:evenodd;fill:rgb(1.568604%,28.234863%,58.822632%);fill-opacity:1;" d="M 96.390625 41.15625 C 95.101563 41.15625 94.542969 40.503906 94.542969 39.371094 C 94.542969 37.332031 95.839844 35.96875 97.417969 35.96875 C 98.753906 35.96875 99.285156 36.722656 99.285156 37.785156 C 99.285156 39.832031 97.882813 41.15625 96.390625 41.15625 Z M 97.261719 36.882813 C 96.261719 36.882813 95.621094 38.054688 95.621094 39.199219 C 95.621094 39.851563 95.878906 40.230469 96.535156 40.230469 C 97.460938 40.230469 98.195313 39.210938 98.195313 37.90625 C 98.195313 37.242188 97.910156 36.882813 97.261719 36.882813 "/>
<g clip-path="url(#clip1)" clip-rule="nonzero">
<path style=" stroke:none;fill-rule:evenodd;fill:rgb(1.568604%,28.234863%,58.822632%);fill-opacity:1;" d="M 103.761719 41.445313 C 103.527344 42.71875 102.742188 43.589844 100.859375 43.589844 C 100.308594 43.589844 99.863281 43.511719 99.492188 43.390625 L 99.738281 42.378906 C 100.121094 42.570313 100.609375 42.667969 101.054688 42.667969 C 102.027344 42.667969 102.59375 42.289063 102.789063 41.265625 C 102.917969 40.582031 103.035156 40.203125 103.339844 39.257813 L 103.320313 39.257813 C 102.96875 39.972656 102.261719 41.164063 101.160156 41.164063 C 100.445313 41.164063 100.050781 40.683594 100.050781 39.621094 C 100.050781 37.765625 101.015625 35.992188 103.144531 35.992188 C 103.714844 35.992188 104.265625 36.039063 104.765625 36.140625 Z M 102.96875 36.824219 C 101.660156 36.824219 101.113281 38.277344 101.113281 39.429688 C 101.113281 40 101.277344 40.242188 101.554688 40.242188 C 102.378906 40.242188 103.3125 38.40625 103.527344 37.273438 L 103.597656 36.914063 C 103.421875 36.863281 103.214844 36.824219 102.96875 36.824219 "/>
</g>
<path style=" stroke:none;fill-rule:evenodd;fill:rgb(1.568604%,28.234863%,58.822632%);fill-opacity:1;" d="M 106.355469 41.054688 L 105.324219 41.054688 L 106.257813 36.070313 L 107.289063 36.070313 Z M 106.992188 35.328125 C 106.621094 35.328125 106.355469 35.027344 106.367188 34.6875 C 106.375 34.285156 106.710938 33.984375 107.082031 33.984375 C 107.445313 33.984375 107.710938 34.277344 107.699219 34.617188 C 107.691406 35.027344 107.359375 35.328125 106.992188 35.328125 "/>
<path style=" stroke:none;fill-rule:evenodd;fill:rgb(1.568604%,28.234863%,58.822632%);fill-opacity:1;" d="M 111.050781 36.890625 C 110.832031 36.8125 110.589844 36.78125 110.351563 36.78125 C 109.773438 36.78125 109.480469 37.042969 109.480469 37.421875 C 109.480469 38.136719 110.863281 38.386719 110.863281 39.488281 C 110.863281 40.324219 110.148438 41.15625 108.703125 41.15625 C 108.378906 41.15625 108.113281 41.125 107.867188 41.074219 L 108.046875 40.152344 C 108.289063 40.230469 108.554688 40.28125 108.820313 40.28125 C 109.402344 40.28125 109.78125 40.050781 109.78125 39.601563 C 109.78125 38.867188 108.40625 38.726563 108.40625 37.535156 C 108.40625 36.660156 109.085938 35.96875 110.410156 35.96875 C 110.734375 35.96875 111 36 111.246094 36.050781 L 111.050781 36.890625 "/>
<path style=" stroke:none;fill-rule:evenodd;fill:rgb(1.568604%,28.234863%,58.822632%);fill-opacity:1;" d="M 115.222656 36.902344 L 113.976563 36.902344 L 113.523438 39.347656 C 113.398438 40.042969 113.496094 40.230469 113.9375 40.230469 C 114.203125 40.230469 114.398438 40.203125 114.585938 40.160156 L 114.507813 41.035156 C 114.203125 41.105469 113.839844 41.144531 113.554688 41.144531 C 112.53125 41.144531 112.246094 40.652344 112.472656 39.488281 L 112.953125 36.902344 L 112.03125 36.902344 L 112.199219 36.070313 L 113.109375 36.070313 L 113.40625 34.484375 L 114.476563 34.253906 L 114.132813 36.070313 L 115.390625 36.070313 L 115.222656 36.902344 "/>
<path style=" stroke:none;fill-rule:evenodd;fill:rgb(1.568604%,28.234863%,58.822632%);fill-opacity:1;" d="M 116.792969 41.054688 L 115.761719 41.054688 L 116.695313 36.070313 L 117.730469 36.070313 Z M 117.433594 35.328125 C 117.058594 35.328125 116.792969 35.027344 116.804688 34.6875 C 116.816406 34.285156 117.148438 33.984375 117.523438 33.984375 C 117.882813 33.984375 118.148438 34.277344 118.140625 34.617188 C 118.128906 35.027344 117.796875 35.328125 117.433594 35.328125 "/>
<path style=" stroke:none;fill-rule:evenodd;fill:rgb(1.568604%,28.234863%,58.822632%);fill-opacity:1;" d="M 122.109375 37.054688 C 121.871094 36.941406 121.597656 36.871094 121.273438 36.871094 C 120.132813 36.871094 119.613281 38.175781 119.613281 39.21875 C 119.613281 39.730469 119.789063 40.203125 120.554688 40.203125 C 120.910156 40.203125 121.28125 40.121094 121.574219 39.980469 L 121.496094 40.925781 C 121.152344 41.042969 120.722656 41.144531 120.261719 41.144531 C 118.972656 41.144531 118.511719 40.453125 118.511719 39.460938 C 118.511719 37.554688 119.582031 35.980469 121.339844 35.980469 C 121.722656 35.980469 122.039063 36.03125 122.351563 36.121094 L 122.109375 37.054688 "/>
<path style=" stroke:none;fill-rule:evenodd;fill:rgb(1.568604%,28.234863%,58.822632%);fill-opacity:1;" d="M 125.691406 36.890625 C 125.476563 36.8125 125.230469 36.78125 124.992188 36.78125 C 124.414063 36.78125 124.121094 37.042969 124.121094 37.421875 C 124.121094 38.136719 125.503906 38.386719 125.503906 39.488281 C 125.503906 40.324219 124.785156 41.15625 123.34375 41.15625 C 123.019531 41.15625 122.753906 41.125 122.507813 41.074219 L 122.6875 40.152344 C 122.933594 40.230469 123.195313 40.28125 123.460938 40.28125 C 124.039063 40.28125 124.425781 40.050781 124.425781 39.601563 C 124.425781 38.867188 123.050781 38.726563 123.050781 37.535156 C 123.050781 36.660156 123.726563 35.96875 125.054688 35.96875 C 125.378906 35.96875 125.640625 36 125.886719 36.050781 L 125.691406 36.890625 "/>
<path style=" stroke:none;fill-rule:evenodd;fill:rgb(1.568604%,28.234863%,58.822632%);fill-opacity:1;" d="M 132.90625 35.246094 C 132.585938 35.136719 132.238281 35.085938 131.984375 35.085938 C 131.054688 35.085938 130.660156 35.597656 130.660156 36.101563 C 130.660156 37.234375 132.632813 37.261719 132.632813 38.878906 C 132.632813 40.160156 131.523438 41.15625 129.953125 41.15625 C 129.570313 41.15625 129.136719 41.125 128.816406 41.023438 L 129.011719 39.992188 C 129.296875 40.113281 129.6875 40.203125 130.03125 40.203125 C 130.976563 40.203125 131.492188 39.75 131.492188 39.058594 C 131.492188 37.976563 129.539063 37.964844 129.539063 36.351563 C 129.539063 35.175781 130.402344 34.183594 132.054688 34.183594 C 132.40625 34.183594 132.722656 34.207031 133.09375 34.277344 L 132.90625 35.246094 "/>
<g clip-path="url(#clip2)" clip-rule="nonzero">
<path style=" stroke:none;fill-rule:evenodd;fill:rgb(1.568604%,28.234863%,58.822632%);fill-opacity:1;" d="M 134.566406 42.667969 C 133.957031 43.28125 133.339844 43.582031 132.738281 43.582031 C 132.492188 43.582031 132.230469 43.550781 132.03125 43.5 L 132.210938 42.558594 C 132.398438 42.628906 132.601563 42.660156 132.808594 42.660156 C 133.140625 42.660156 133.515625 42.476563 133.820313 42.15625 C 134.164063 41.796875 134.320313 41.375 134.320313 40.703125 C 134.320313 39.339844 134.027344 37.695313 133.59375 36.070313 L 134.742188 36.070313 C 135.046875 37.273438 135.273438 38.765625 135.273438 39.832031 C 135.273438 39.980469 135.242188 40.183594 135.214844 40.351563 L 135.222656 40.351563 C 135.941406 39.039063 136.570313 37.664063 137.285156 35.871094 L 138.277344 36.152344 C 136.933594 39.347656 135.761719 41.457031 134.566406 42.667969 "/>
</g>
<path style=" stroke:none;fill-rule:evenodd;fill:rgb(1.568604%,28.234863%,58.822632%);fill-opacity:1;" d="M 141.3125 36.890625 C 141.097656 36.8125 140.851563 36.78125 140.613281 36.78125 C 140.035156 36.78125 139.742188 37.042969 139.742188 37.421875 C 139.742188 38.136719 141.125 38.386719 141.125 39.488281 C 141.125 40.324219 140.410156 41.15625 138.964844 41.15625 C 138.640625 41.15625 138.375 41.125 138.128906 41.074219 L 138.308594 40.152344 C 138.554688 40.230469 138.820313 40.28125 139.085938 40.28125 C 139.664063 40.28125 140.046875 40.050781 140.046875 39.601563 C 140.046875 38.867188 138.671875 38.726563 138.671875 37.535156 C 138.671875 36.660156 139.347656 35.96875 140.675781 35.96875 C 140.996094 35.96875 141.261719 36 141.507813 36.050781 L 141.3125 36.890625 "/>
<path style=" stroke:none;fill-rule:evenodd;fill:rgb(1.568604%,28.234863%,58.822632%);fill-opacity:1;" d="M 145.484375 36.902344 L 144.238281 36.902344 L 143.785156 39.347656 C 143.660156 40.042969 143.757813 40.230469 144.199219 40.230469 C 144.464844 40.230469 144.660156 40.203125 144.847656 40.160156 L 144.769531 41.035156 C 144.464844 41.105469 144.101563 41.144531 143.816406 41.144531 C 142.792969 41.144531 142.511719 40.652344 142.734375 39.488281 L 143.21875 36.902344 L 142.292969 36.902344 L 142.460938 36.070313 L 143.375 36.070313 L 143.667969 34.484375 L 144.738281 34.253906 L 144.394531 36.070313 L 145.652344 36.070313 L 145.484375 36.902344 "/>
<path style=" stroke:none;fill-rule:evenodd;fill:rgb(1.568604%,28.234863%,58.822632%);fill-opacity:1;" d="M 147.144531 38.929688 C 147.125 39.058594 147.105469 39.28125 147.105469 39.429688 C 147.105469 40.113281 147.351563 40.292969 148.089844 40.292969 C 148.550781 40.292969 149.050781 40.183594 149.484375 40 L 149.484375 40.84375 C 148.984375 41.035156 148.382813 41.15625 147.742188 41.15625 C 146.566406 41.15625 146.054688 40.625 146.054688 39.5 C 146.054688 37.503906 147.195313 35.96875 148.765625 35.96875 C 149.886719 35.96875 150.269531 36.550781 150.269531 37.144531 C 150.269531 38.265625 149.15625 38.859375 147.144531 38.929688 Z M 148.648438 36.773438 C 147.941406 36.773438 147.46875 37.421875 147.273438 38.1875 C 148.609375 38.136719 149.238281 37.855469 149.238281 37.285156 C 149.238281 36.953125 149.011719 36.773438 148.648438 36.773438 "/>
<path style=" stroke:none;fill-rule:evenodd;fill:rgb(1.568604%,28.234863%,58.822632%);fill-opacity:1;" d="M 157.652344 41.054688 L 156.621094 41.054688 L 157.210938 37.894531 C 157.347656 37.183594 157.21875 36.882813 156.867188 36.882813 C 156.21875 36.882813 155.207031 38.386719 154.933594 39.871094 L 154.707031 41.054688 L 153.6875 41.054688 L 154.273438 37.894531 C 154.410156 37.183594 154.292969 36.882813 153.929688 36.882813 C 153.195313 36.882813 152.222656 38.585938 151.988281 39.871094 L 151.769531 41.054688 L 150.738281 41.054688 L 151.230469 38.445313 C 151.386719 37.613281 151.542969 36.753906 151.652344 36.070313 L 152.675781 36.070313 C 152.613281 36.390625 152.480469 36.933594 152.171875 37.84375 L 152.195313 37.855469 C 152.644531 36.871094 153.359375 35.960938 154.332031 35.960938 C 154.941406 35.960938 155.316406 36.308594 155.316406 36.941406 C 155.316406 37.203125 155.246094 37.445313 155.121094 37.875 L 155.140625 37.875 C 155.589844 36.871094 156.308594 35.960938 157.277344 35.960938 C 158.171875 35.960938 158.476563 36.632813 158.289063 37.644531 L 157.652344 41.054688 "/>
<g clip-path="url(#clip3)" clip-rule="nonzero">
<path style=" stroke:none;fill-rule:evenodd;fill:rgb(1.568604%,28.234863%,58.822632%);fill-opacity:1;" d="M 162.335938 36.890625 C 162.121094 36.8125 161.875 36.78125 161.640625 36.78125 C 161.058594 36.78125 160.765625 37.042969 160.765625 37.421875 C 160.765625 38.136719 162.152344 38.386719 162.152344 39.488281 C 162.152344 40.324219 161.433594 41.15625 159.988281 41.15625 C 159.664063 41.15625 159.402344 41.125 159.15625 41.074219 L 159.332031 40.152344 C 159.578125 40.230469 159.84375 40.28125 160.109375 40.28125 C 160.6875 40.28125 161.070313 40.050781 161.070313 39.601563 C 161.070313 38.867188 159.695313 38.726563 159.695313 37.535156 C 159.695313 36.660156 160.371094 35.96875 161.699219 35.96875 C 162.023438 35.96875 162.285156 36 162.53125 36.050781 L 162.335938 36.890625 "/>
</g>
<path style=" stroke:none;fill-rule:evenodd;fill:rgb(1.568604%,28.234863%,58.822632%);fill-opacity:1;" d="M 60.585938 35.507813 C 60.074219 35.277344 59.464844 35.148438 58.9375 35.148438 C 57.167969 35.148438 55.980469 36.660156 55.980469 38.4375 C 55.980469 39.320313 56.453125 40.183594 57.757813 40.183594 C 58.179688 40.183594 58.535156 40.113281 58.878906 40.011719 L 59.339844 37.566406 L 60.378906 37.566406 L 59.78125 40.761719 C 59.09375 41.023438 58.269531 41.15625 57.570313 41.15625 C 55.695313 41.15625 54.839844 40.070313 54.839844 38.566406 C 54.839844 36.039063 56.636719 34.195313 59.054688 34.195313 C 59.703125 34.195313 60.339844 34.285156 60.902344 34.464844 L 60.585938 35.507813 "/>
<path style=" stroke:none;fill-rule:evenodd;fill:rgb(1.568604%,28.234863%,58.822632%);fill-opacity:1;" d="M 62.304688 38.929688 C 62.285156 39.058594 62.265625 39.28125 62.265625 39.429688 C 62.265625 40.113281 62.511719 40.292969 63.246094 40.292969 C 63.707031 40.292969 64.210938 40.183594 64.640625 40 L 64.640625 40.84375 C 64.140625 41.035156 63.542969 41.15625 62.902344 41.15625 C 61.726563 41.15625 61.214844 40.625 61.214844 39.5 C 61.214844 37.503906 62.355469 35.96875 63.925781 35.96875 C 65.042969 35.96875 65.425781 36.550781 65.425781 37.144531 C 65.425781 38.265625 64.316406 38.859375 62.304688 38.929688 Z M 63.808594 36.773438 C 63.101563 36.773438 62.628906 37.421875 62.433594 38.1875 C 63.769531 38.136719 64.398438 37.855469 64.398438 37.285156 C 64.398438 36.953125 64.171875 36.773438 63.808594 36.773438 "/>
<path style=" stroke:none;fill-rule:evenodd;fill:rgb(1.568604%,28.234863%,58.822632%);fill-opacity:1;" d="M 69.914063 41.054688 L 68.882813 41.054688 L 69.484375 37.894531 C 69.621094 37.183594 69.492188 36.882813 69.109375 36.882813 C 68.324219 36.882813 67.363281 38.667969 67.144531 39.871094 L 66.929688 41.054688 L 65.898438 41.054688 L 66.390625 38.445313 C 66.546875 37.613281 66.703125 36.742188 66.8125 36.070313 L 67.832031 36.070313 C 67.773438 36.382813 67.648438 36.914063 67.332031 37.84375 L 67.351563 37.855469 C 67.8125 36.871094 68.539063 35.960938 69.523438 35.960938 C 70.445313 35.960938 70.738281 36.632813 70.554688 37.644531 L 69.914063 41.054688 "/>
<path style=" stroke:none;fill-rule:evenodd;fill:rgb(1.568604%,28.234863%,58.822632%);fill-opacity:1;" d="M 72.527344 38.929688 C 72.507813 39.058594 72.488281 39.28125 72.488281 39.429688 C 72.488281 40.113281 72.734375 40.292969 73.46875 40.292969 C 73.929688 40.292969 74.433594 40.183594 74.863281 40 L 74.863281 40.84375 C 74.363281 41.035156 73.765625 41.15625 73.125 41.15625 C 71.949219 41.15625 71.4375 40.625 71.4375 39.5 C 71.4375 37.503906 72.578125 35.96875 74.148438 35.96875 C 75.265625 35.96875 75.648438 36.550781 75.648438 37.144531 C 75.648438 38.265625 74.539063 38.859375 72.527344 38.929688 Z M 74.03125 36.773438 C 73.324219 36.773438 72.851563 37.421875 72.65625 38.1875 C 73.992188 38.136719 74.617188 37.855469 74.617188 37.285156 C 74.617188 36.953125 74.394531 36.773438 74.03125 36.773438 "/>
<path style=" stroke:none;fill-rule:evenodd;fill:rgb(1.568604%,28.234863%,58.822632%);fill-opacity:1;" d="M 79.570313 37.003906 C 78.753906 36.761719 77.839844 38.425781 77.554688 39.949219 L 77.347656 41.054688 L 76.316406 41.054688 L 76.808594 38.445313 C 76.9375 37.746094 77.105469 36.8125 77.230469 36.070313 L 78.234375 36.070313 C 78.164063 36.480469 78.035156 36.972656 77.769531 37.753906 L 77.789063 37.765625 C 78.332031 36.621094 78.890625 35.820313 79.785156 35.96875 L 79.570313 37.003906 "/>
<path style=" stroke:none;fill-rule:evenodd;fill:rgb(1.568604%,28.234863%,58.822632%);fill-opacity:1;" d="M 83.78125 41.054688 L 82.757813 41.054688 C 82.847656 40.644531 83.015625 40.050781 83.28125 39.230469 L 83.257813 39.21875 C 82.886719 39.972656 82.179688 41.164063 81.082031 41.164063 C 80.363281 41.164063 79.96875 40.683594 79.96875 39.621094 C 79.96875 37.765625 80.921875 35.992188 83.0625 35.992188 C 83.632813 35.992188 84.183594 36.039063 84.683594 36.140625 C 84.203125 38.675781 83.988281 39.820313 83.78125 41.054688 Z M 82.886719 36.824219 C 81.582031 36.824219 81.03125 38.277344 81.03125 39.429688 C 81.03125 40 81.199219 40.242188 81.472656 40.242188 C 82.296875 40.242188 83.230469 38.40625 83.449219 37.273438 L 83.515625 36.914063 C 83.339844 36.863281 83.132813 36.824219 82.886719 36.824219 "/>
<path style=" stroke:none;fill-rule:evenodd;fill:rgb(1.568604%,28.234863%,58.822632%);fill-opacity:1;" d="M 86.292969 41.054688 L 85.261719 41.054688 L 86.53125 34.183594 L 87.5625 34.183594 L 86.292969 41.054688 "/>
<path style=" stroke:none;fill-rule:evenodd;fill:rgb(1.568604%,28.234863%,58.822632%);fill-opacity:1;" d="M 93.601563 41.054688 L 90.332031 41.054688 L 91.613281 34.167969 L 92.664063 34.167969 L 91.558594 40.101563 L 93.785156 40.101563 L 93.601563 41.054688 "/>
<path style=" stroke:none;fill-rule:evenodd;fill:rgb(1.568604%,28.234863%,58.822632%);fill-opacity:1;" d="M 96.390625 41.15625 C 95.101563 41.15625 94.542969 40.503906 94.542969 39.371094 C 94.542969 37.332031 95.839844 35.96875 97.417969 35.96875 C 98.753906 35.96875 99.285156 36.722656 99.285156 37.785156 C 99.285156 39.832031 97.882813 41.15625 96.390625 41.15625 Z M 97.261719 36.882813 C 96.261719 36.882813 95.621094 38.054688 95.621094 39.199219 C 95.621094 39.851563 95.878906 40.230469 96.535156 40.230469 C 97.460938 40.230469 98.195313 39.210938 98.195313 37.90625 C 98.195313 37.242188 97.910156 36.882813 97.261719 36.882813 "/>
<g clip-path="url(#clip4)" clip-rule="nonzero">
<path style=" stroke:none;fill-rule:evenodd;fill:rgb(1.568604%,28.234863%,58.822632%);fill-opacity:1;" d="M 103.761719 41.445313 C 103.527344 42.71875 102.742188 43.589844 100.859375 43.589844 C 100.308594 43.589844 99.863281 43.511719 99.492188 43.390625 L 99.738281 42.378906 C 100.121094 42.570313 100.609375 42.667969 101.054688 42.667969 C 102.027344 42.667969 102.59375 42.289063 102.789063 41.265625 C 102.917969 40.582031 103.035156 40.203125 103.339844 39.257813 L 103.320313 39.257813 C 102.96875 39.972656 102.261719 41.164063 101.160156 41.164063 C 100.445313 41.164063 100.050781 40.683594 100.050781 39.621094 C 100.050781 37.765625 101.015625 35.992188 103.144531 35.992188 C 103.714844 35.992188 104.265625 36.039063 104.765625 36.140625 Z M 102.96875 36.824219 C 101.660156 36.824219 101.113281 38.277344 101.113281 39.429688 C 101.113281 40 101.277344 40.242188 101.554688 40.242188 C 102.378906 40.242188 103.3125 38.40625 103.527344 37.273438 L 103.597656 36.914063 C 103.421875 36.863281 103.214844 36.824219 102.96875 36.824219 "/>
</g>
<path style=" stroke:none;fill-rule:evenodd;fill:rgb(1.568604%,28.234863%,58.822632%);fill-opacity:1;" d="M 106.355469 41.054688 L 105.324219 41.054688 L 106.257813 36.070313 L 107.289063 36.070313 Z M 106.992188 35.328125 C 106.621094 35.328125 106.355469 35.027344 106.367188 34.6875 C 106.375 34.285156 106.710938 33.984375 107.082031 33.984375 C 107.445313 33.984375 107.710938 34.277344 107.699219 34.617188 C 107.691406 35.027344 107.359375 35.328125 106.992188 35.328125 "/>
<path style=" stroke:none;fill-rule:evenodd;fill:rgb(1.568604%,28.234863%,58.822632%);fill-opacity:1;" d="M 111.050781 36.890625 C 110.832031 36.8125 110.589844 36.78125 110.351563 36.78125 C 109.773438 36.78125 109.480469 37.042969 109.480469 37.421875 C 109.480469 38.136719 110.863281 38.386719 110.863281 39.488281 C 110.863281 40.324219 110.148438 41.15625 108.703125 41.15625 C 108.378906 41.15625 108.113281 41.125 107.867188 41.074219 L 108.046875 40.152344 C 108.289063 40.230469 108.554688 40.28125 108.820313 40.28125 C 109.402344 40.28125 109.78125 40.050781 109.78125 39.601563 C 109.78125 38.867188 108.40625 38.726563 108.40625 37.535156 C 108.40625 36.660156 109.085938 35.96875 110.410156 35.96875 C 110.734375 35.96875 111 36 111.246094 36.050781 L 111.050781 36.890625 "/>
<path style=" stroke:none;fill-rule:evenodd;fill:rgb(1.568604%,28.234863%,58.822632%);fill-opacity:1;" d="M 115.222656 36.902344 L 113.976563 36.902344 L 113.523438 39.347656 C 113.398438 40.042969 113.496094 40.230469 113.9375 40.230469 C 114.203125 40.230469 114.398438 40.203125 114.585938 40.160156 L 114.507813 41.035156 C 114.203125 41.105469 113.839844 41.144531 113.554688 41.144531 C 112.53125 41.144531 112.246094 40.652344 112.472656 39.488281 L 112.953125 36.902344 L 112.03125 36.902344 L 112.199219 36.070313 L 113.109375 36.070313 L 113.40625 34.484375 L 114.476563 34.253906 L 114.132813 36.070313 L 115.390625 36.070313 L 115.222656 36.902344 "/>
<path style=" stroke:none;fill-rule:evenodd;fill:rgb(1.568604%,28.234863%,58.822632%);fill-opacity:1;" d="M 116.792969 41.054688 L 115.761719 41.054688 L 116.695313 36.070313 L 117.730469 36.070313 Z M 117.433594 35.328125 C 117.058594 35.328125 116.792969 35.027344 116.804688 34.6875 C 116.816406 34.285156 117.148438 33.984375 117.523438 33.984375 C 117.882813 33.984375 118.148438 34.277344 118.140625 34.617188 C 118.128906 35.027344 117.796875 35.328125 117.433594 35.328125 "/>
<path style=" stroke:none;fill-rule:evenodd;fill:rgb(1.568604%,28.234863%,58.822632%);fill-opacity:1;" d="M 122.109375 37.054688 C 121.871094 36.941406 121.597656 36.871094 121.273438 36.871094 C 120.132813 36.871094 119.613281 38.175781 119.613281 39.21875 C 119.613281 39.730469 119.789063 40.203125 120.554688 40.203125 C 120.910156 40.203125 121.28125 40.121094 121.574219 39.980469 L 121.496094 40.925781 C 121.152344 41.042969 120.722656 41.144531 120.261719 41.144531 C 118.972656 41.144531 118.511719 40.453125 118.511719 39.460938 C 118.511719 37.554688 119.582031 35.980469 121.339844 35.980469 C 121.722656 35.980469 122.039063 36.03125 122.351563 36.121094 L 122.109375 37.054688 "/>
<path style=" stroke:none;fill-rule:evenodd;fill:rgb(1.568604%,28.234863%,58.822632%);fill-opacity:1;" d="M 125.691406 36.890625 C 125.476563 36.8125 125.230469 36.78125 124.992188 36.78125 C 124.414063 36.78125 124.121094 37.042969 124.121094 37.421875 C 124.121094 38.136719 125.503906 38.386719 125.503906 39.488281 C 125.503906 40.324219 124.785156 41.15625 123.34375 41.15625 C 123.019531 41.15625 122.753906 41.125 122.507813 41.074219 L 122.6875 40.152344 C 122.933594 40.230469 123.195313 40.28125 123.460938 40.28125 C 124.039063 40.28125 124.425781 40.050781 124.425781 39.601563 C 124.425781 38.867188 123.050781 38.726563 123.050781 37.535156 C 123.050781 36.660156 123.726563 35.96875 125.054688 35.96875 C 125.378906 35.96875 125.640625 36 125.886719 36.050781 L 125.691406 36.890625 "/>
<path style=" stroke:none;fill-rule:evenodd;fill:rgb(1.568604%,28.234863%,58.822632%);fill-opacity:1;" d="M 132.90625 35.246094 C 132.585938 35.136719 132.238281 35.085938 131.984375 35.085938 C 131.054688 35.085938 130.660156 35.597656 130.660156 36.101563 C 130.660156 37.234375 132.632813 37.261719 132.632813 38.878906 C 132.632813 40.160156 131.523438 41.15625 129.953125 41.15625 C 129.570313 41.15625 129.136719 41.125 128.816406 41.023438 L 129.011719 39.992188 C 129.296875 40.113281 129.6875 40.203125 130.03125 40.203125 C 130.976563 40.203125 131.492188 39.75 131.492188 39.058594 C 131.492188 37.976563 129.539063 37.964844 129.539063 36.351563 C 129.539063 35.175781 130.402344 34.183594 132.054688 34.183594 C 132.40625 34.183594 132.722656 34.207031 133.09375 34.277344 L 132.90625 35.246094 "/>
<g clip-path="url(#clip5)" clip-rule="nonzero">
<path style=" stroke:none;fill-rule:evenodd;fill:rgb(1.568604%,28.234863%,58.822632%);fill-opacity:1;" d="M 134.566406 42.667969 C 133.957031 43.28125 133.339844 43.582031 132.738281 43.582031 C 132.492188 43.582031 132.230469 43.550781 132.03125 43.5 L 132.210938 42.558594 C 132.398438 42.628906 132.601563 42.660156 132.808594 42.660156 C 133.140625 42.660156 133.515625 42.476563 133.820313 42.15625 C 134.164063 41.796875 134.320313 41.375 134.320313 40.703125 C 134.320313 39.339844 134.027344 37.695313 133.59375 36.070313 L 134.742188 36.070313 C 135.046875 37.273438 135.273438 38.765625 135.273438 39.832031 C 135.273438 39.980469 135.242188 40.183594 135.214844 40.351563 L 135.222656 40.351563 C 135.941406 39.039063 136.570313 37.664063 137.285156 35.871094 L 138.277344 36.152344 C 136.933594 39.347656 135.761719 41.457031 134.566406 42.667969 "/>
</g>
<path style=" stroke:none;fill-rule:evenodd;fill:rgb(1.568604%,28.234863%,58.822632%);fill-opacity:1;" d="M 141.3125 36.890625 C 141.097656 36.8125 140.851563 36.78125 140.613281 36.78125 C 140.035156 36.78125 139.742188 37.042969 139.742188 37.421875 C 139.742188 38.136719 141.125 38.386719 141.125 39.488281 C 141.125 40.324219 140.410156 41.15625 138.964844 41.15625 C 138.640625 41.15625 138.375 41.125 138.128906 41.074219 L 138.308594 40.152344 C 138.554688 40.230469 138.820313 40.28125 139.085938 40.28125 C 139.664063 40.28125 140.046875 40.050781 140.046875 39.601563 C 140.046875 38.867188 138.671875 38.726563 138.671875 37.535156 C 138.671875 36.660156 139.347656 35.96875 140.675781 35.96875 C 140.996094 35.96875 141.261719 36 141.507813 36.050781 L 141.3125 36.890625 "/>
<path style=" stroke:none;fill-rule:evenodd;fill:rgb(1.568604%,28.234863%,58.822632%);fill-opacity:1;" d="M 145.484375 36.902344 L 144.238281 36.902344 L 143.785156 39.347656 C 143.660156 40.042969 143.757813 40.230469 144.199219 40.230469 C 144.464844 40.230469 144.660156 40.203125 144.847656 40.160156 L 144.769531 41.035156 C 144.464844 41.105469 144.101563 41.144531 143.816406 41.144531 C 142.792969 41.144531 142.511719 40.652344 142.734375 39.488281 L 143.21875 36.902344 L 142.292969 36.902344 L 142.460938 36.070313 L 143.375 36.070313 L 143.667969 34.484375 L 144.738281 34.253906 L 144.394531 36.070313 L 145.652344 36.070313 L 145.484375 36.902344 "/>
<path style=" stroke:none;fill-rule:evenodd;fill:rgb(1.568604%,28.234863%,58.822632%);fill-opacity:1;" d="M 147.144531 38.929688 C 147.125 39.058594 147.105469 39.28125 147.105469 39.429688 C 147.105469 40.113281 147.351563 40.292969 148.089844 40.292969 C 148.550781 40.292969 149.050781 40.183594 149.484375 40 L 149.484375 40.84375 C 148.984375 41.035156 148.382813 41.15625 147.742188 41.15625 C 146.566406 41.15625 146.054688 40.625 146.054688 39.5 C 146.054688 37.503906 147.195313 35.96875 148.765625 35.96875 C 149.886719 35.96875 150.269531 36.550781 150.269531 37.144531 C 150.269531 38.265625 149.15625 38.859375 147.144531 38.929688 Z M 148.648438 36.773438 C 147.941406 36.773438 147.46875 37.421875 147.273438 38.1875 C 148.609375 38.136719 149.238281 37.855469 149.238281 37.285156 C 149.238281 36.953125 149.011719 36.773438 148.648438 36.773438 "/>
<path style=" stroke:none;fill-rule:evenodd;fill:rgb(1.568604%,28.234863%,58.822632%);fill-opacity:1;" d="M 157.652344 41.054688 L 156.621094 41.054688 L 157.210938 37.894531 C 157.347656 37.183594 157.21875 36.882813 156.867188 36.882813 C 156.21875 36.882813 155.207031 38.386719 154.933594 39.871094 L 154.707031 41.054688 L 153.6875 41.054688 L 154.273438 37.894531 C 154.410156 37.183594 154.292969 36.882813 153.929688 36.882813 C 153.195313 36.882813 152.222656 38.585938 151.988281 39.871094 L 151.769531 41.054688 L 150.738281 41.054688 L 151.230469 38.445313 C 151.386719 37.613281 151.542969 36.753906 151.652344 36.070313 L 152.675781 36.070313 C 152.613281 36.390625 152.480469 36.933594 152.171875 37.84375 L 152.195313 37.855469 C 152.644531 36.871094 153.359375 35.960938 154.332031 35.960938 C 154.941406 35.960938 155.316406 36.308594 155.316406 36.941406 C 155.316406 37.203125 155.246094 37.445313 155.121094 37.875 L 155.140625 37.875 C 155.589844 36.871094 156.308594 35.960938 157.277344 35.960938 C 158.171875 35.960938 158.476563 36.632813 158.289063 37.644531 L 157.652344 41.054688 "/>
<g clip-path="url(#clip6)" clip-rule="nonzero">
<path style=" stroke:none;fill-rule:evenodd;fill:rgb(1.568604%,28.234863%,58.822632%);fill-opacity:1;" d="M 162.335938 36.890625 C 162.121094 36.8125 161.875 36.78125 161.640625 36.78125 C 161.058594 36.78125 160.765625 37.042969 160.765625 37.421875 C 160.765625 38.136719 162.152344 38.386719 162.152344 39.488281 C 162.152344 40.324219 161.433594 41.15625 159.988281 41.15625 C 159.664063 41.15625 159.402344 41.125 159.15625 41.074219 L 159.332031 40.152344 C 159.578125 40.230469 159.84375 40.28125 160.109375 40.28125 C 160.6875 40.28125 161.070313 40.050781 161.070313 39.601563 C 161.070313 38.867188 159.695313 38.726563 159.695313 37.535156 C 159.695313 36.660156 160.371094 35.96875 161.699219 35.96875 C 162.023438 35.96875 162.285156 36 162.53125 36.050781 L 162.335938 36.890625 "/>
</g>
<path style=" stroke:none;fill-rule:evenodd;fill:rgb(1.568604%,28.234863%,58.822632%);fill-opacity:1;" d="M 85.761719 22.949219 L 89.277344 4.902344 L 83.152344 4.902344 L 78.511719 28.953125 L 89.6875 28.964844 L 90.804688 22.949219 L 85.761719 22.949219 "/>
<path style=" stroke:none;fill-rule:evenodd;fill:rgb(1.568604%,28.234863%,58.822632%);fill-opacity:1;" d="M 103.746094 10.222656 C 104.753906 10.222656 106.199219 10.464844 107.070313 10.773438 L 108.113281 5.234375 C 106.835938 5.027344 105.460938 4.886719 103.949219 4.886719 C 97.300781 4.886719 94.175781 8.847656 94.175781 13.285156 C 94.175781 19.101563 100.085938 19.035156 100.085938 21.511719 C 100.085938 22.753906 99.214844 23.441406 97.335938 23.441406 C 96.023438 23.441406 94.210938 23.132813 93.136719 22.71875 L 91.996094 28.664063 C 93.238281 28.90625 94.984375 29.085938 96.726563 29.085938 C 102.671875 29.085938 106.835938 25.128906 106.835938 20.34375 C 106.835938 14.699219 100.894531 14.59375 100.894531 12.117188 C 100.894531 11.015625 101.632813 10.222656 103.746094 10.222656 "/>
<path style=" stroke:none;fill-rule:evenodd;fill:rgb(1.568604%,28.234863%,58.822632%);fill-opacity:1;" d="M 73.695313 4.90625 C 64.5625 4.90625 58.699219 11.746094 58.699219 20.136719 C 58.699219 25.390625 61.460938 29.015625 68.4375 29.015625 C 71.199219 29.015625 74.113281 28.507813 76.441406 27.507813 L 78.679688 15.890625 L 72.546875 15.890625 L 71.234375 22.972656 C 70.695313 23.109375 70.054688 23.144531 69.550781 23.144531 C 66.484375 23.144531 65.371094 21.453125 65.371094 19.207031 C 65.371094 15.027344 67.933594 10.710938 73.15625 10.710938 C 74.625 10.710938 76.230469 10.984375 77.667969 11.429688 C 77.8125 11.472656 77.964844 11.519531 78.121094 11.574219 C 78.636719 11.75 79.082031 11.941406 79.398438 12.113281 L 80.644531 5.832031 C 78.542969 5.257813 76.019531 4.90625 73.695313 4.90625 "/>
<path style=" stroke:none;fill-rule:evenodd;fill:rgb(97.999573%,74.499512%,7.499695%);fill-opacity:1;" d="M 27.804688 4.980469 L 26.160156 12.957031 L 37.507813 12.957031 C 28.109375 26.886719 9.449219 24.523438 4.515625 18.746094 C 0.269531 13.773438 3.9375 5.257813 16.527344 0 C 4.066406 3.792969 -2.929688 13.753906 1.179688 20.457031 C 5.839844 28.0625 20.367188 31.234375 33.277344 27.542969 C 41.90625 24.507813 45.585938 20.261719 46.933594 17.96875 L 44.820313 29.015625 L 53.300781 29.015625 L 57.902344 4.980469 L 27.804688 4.980469 "/>
</g>
</svg>
