<?xml version="1.0" encoding="UTF-8"?>
<svg xmlns="http://www.w3.org/2000/svg" xmlns:xlink="http://www.w3.org/1999/xlink" width="194pt" height="194pt" viewBox="0 0 194 194" version="1.1">
<g id="surface1">
<path style=" stroke:none;fill-rule:evenodd;fill:rgb(100%,100%,100%);fill-opacity:1;" d="M 0.257813 0.675781 L 193.015625 0.675781 L 193.015625 193.433594 L 0.257813 193.433594 L 0.257813 0.675781 "/>
<path style=" stroke:none;fill-rule:evenodd;fill:rgb(100%,100%,100%);fill-opacity:1;" d="M 64.878906 34.59375 L 128.492188 34.59375 L 128.492188 159.515625 L 64.878906 159.515625 L 64.878906 34.59375 "/>
<path style="fill:none;stroke-width:12.8201;stroke-linecap:butt;stroke-linejoin:miter;stroke:rgb(0%,22.399902%,46.299744%);stroke-opacity:1;stroke-miterlimit:2.6131;" d="M 652.137135 1585.926696 L 1291.552707 1585.926696 L 1291.552707 343.08373 L 652.137135 343.08373 Z M 652.137135 1585.926696 " transform="matrix(0.0994866,0,0,-0.100513,0,194)"/>
<path style=" stroke:none;fill-rule:evenodd;fill:rgb(0%,22.399902%,46.299744%);fill-opacity:1;" d="M 95.082031 47.4375 L 98.234375 47.4375 C 98.101563 47.34375 97.988281 47.226563 97.859375 47.101563 C 97.3125 46.546875 97.402344 45.917969 97.625 45.691406 C 97.851563 45.464844 98.472656 45.730469 99.019531 46.28125 C 99.15625 46.417969 99.273438 46.558594 99.375 46.699219 L 99.375 42.789063 C 99.277344 42.921875 99.167969 43.046875 99.039063 43.179688 C 98.492188 43.734375 97.867188 43.996094 97.644531 43.769531 C 97.421875 43.546875 97.683594 42.914063 98.226563 42.363281 C 98.363281 42.226563 98.488281 42.109375 98.625 42.011719 L 94.777344 42.011719 C 94.90625 42.101563 95.035156 42.21875 95.160156 42.34375 C 95.707031 42.894531 95.96875 43.527344 95.742188 43.753906 C 95.519531 43.980469 94.898438 43.714844 94.351563 43.164063 C 94.214844 43.027344 94.09375 42.890625 93.996094 42.753906 L 93.996094 46.648438 C 94.09375 46.519531 94.207031 46.390625 94.332031 46.261719 C 94.878906 45.710938 95.5 45.449219 95.726563 45.671875 C 95.949219 45.898438 96.039063 46.527344 95.492188 47.082031 C 95.355469 47.21875 95.21875 47.339844 95.082031 47.4375 "/>
<path style=" stroke:none;fill-rule:evenodd;fill:rgb(0%,22.399902%,46.299744%);fill-opacity:1;" d="M 93.480469 51.710938 C 93.78125 53.199219 95.085938 54.324219 96.648438 54.324219 C 98.214844 54.324219 99.515625 53.203125 99.816406 51.710938 L 93.480469 51.710938 "/>
<path style=" stroke:none;fill-rule:evenodd;fill:rgb(0%,22.399902%,46.299744%);fill-opacity:1;" d="M 99.816406 50.398438 C 99.550781 49.117188 98.542969 48.101563 97.269531 47.851563 L 97.269531 50.398438 L 99.816406 50.398438 "/>
<path style=" stroke:none;fill-rule:evenodd;fill:rgb(0%,22.399902%,46.299744%);fill-opacity:1;" d="M 95.992188 47.859375 C 94.734375 48.121094 93.738281 49.125 93.480469 50.398438 L 95.992188 50.398438 L 95.992188 47.859375 "/>
<path style=" stroke:none;fill-rule:evenodd;fill:rgb(0%,22.399902%,46.299744%);fill-opacity:1;" d="M 95.671875 55.722656 C 95.671875 55.179688 96.109375 54.738281 96.648438 54.738281 C 97.1875 54.738281 97.625 55.179688 97.625 55.722656 C 97.625 56.265625 97.1875 56.707031 96.648438 56.707031 C 96.109375 56.707031 95.671875 56.265625 95.671875 55.722656 "/>
<path style=" stroke:none;fill-rule:evenodd;fill:rgb(0%,22.399902%,46.299744%);fill-opacity:1;" d="M 95.671875 58.191406 C 95.671875 57.648438 96.109375 57.210938 96.648438 57.210938 C 97.1875 57.210938 97.625 57.648438 97.625 58.191406 C 97.625 58.738281 97.1875 59.179688 96.648438 59.179688 C 96.109375 59.179688 95.671875 58.738281 95.671875 58.191406 "/>
<path style=" stroke:none;fill-rule:evenodd;fill:rgb(0%,22.399902%,46.299744%);fill-opacity:1;" d="M 95.671875 60.664063 C 95.671875 60.121094 96.109375 59.679688 96.648438 59.679688 C 97.1875 59.679688 97.625 60.121094 97.625 60.664063 C 97.625 61.207031 97.1875 61.648438 96.648438 61.648438 C 96.109375 61.648438 95.671875 61.207031 95.671875 60.664063 "/>
<path style=" stroke:none;fill-rule:evenodd;fill:rgb(0%,22.399902%,46.299744%);fill-opacity:1;" d="M 95.671875 63.136719 C 95.671875 62.59375 96.109375 62.152344 96.648438 62.152344 C 97.1875 62.152344 97.625 62.59375 97.625 63.136719 C 97.625 63.679688 97.1875 64.121094 96.648438 64.121094 C 96.109375 64.121094 95.671875 63.679688 95.671875 63.136719 "/>
<path style=" stroke:none;fill-rule:evenodd;fill:rgb(0%,22.399902%,46.299744%);fill-opacity:1;" d="M 95.574219 68.636719 C 95.574219 68.035156 96.054688 67.550781 96.648438 67.550781 C 97.242188 67.550781 97.722656 68.035156 97.722656 68.636719 C 97.722656 69.234375 97.242188 69.722656 96.648438 69.722656 C 96.054688 69.722656 95.574219 69.234375 95.574219 68.636719 "/>
<path style=" stroke:none;fill-rule:evenodd;fill:rgb(0%,22.399902%,46.299744%);fill-opacity:1;" d="M 112.859375 71.777344 C 113.238281 71.90625 113.71875 71.488281 113.9375 70.839844 C 114.152344 70.191406 114.019531 69.5625 113.640625 69.4375 C 113.261719 69.308594 112.78125 69.726563 112.566406 70.375 C 112.351563 71.023438 112.480469 71.648438 112.859375 71.777344 "/>
<path style=" stroke:none;fill-rule:evenodd;fill:rgb(0%,22.399902%,46.299744%);fill-opacity:1;" d="M 80.4375 71.777344 C 80.058594 71.90625 79.578125 71.488281 79.359375 70.839844 C 79.144531 70.191406 79.277344 69.5625 79.65625 69.4375 C 80.035156 69.308594 80.515625 69.726563 80.730469 70.375 C 80.945313 71.023438 80.816406 71.648438 80.4375 71.777344 "/>
<path style=" stroke:none;fill-rule:evenodd;fill:rgb(0%,22.399902%,46.299744%);fill-opacity:1;" d="M 100.273438 53.214844 C 100.273438 52.417969 100.910156 51.769531 101.703125 51.769531 C 102.492188 51.769531 103.128906 52.417969 103.128906 53.214844 C 103.128906 54.011719 102.492188 54.660156 101.703125 54.660156 C 100.910156 54.660156 100.273438 54.011719 100.273438 53.214844 "/>
<path style=" stroke:none;fill-rule:evenodd;fill:rgb(0%,22.399902%,46.299744%);fill-opacity:1;" d="M 103.613281 51.761719 C 103.613281 50.964844 104.25 50.316406 105.039063 50.316406 C 105.828125 50.316406 106.46875 50.964844 106.46875 51.761719 C 106.46875 52.558594 105.828125 53.203125 105.039063 53.203125 C 104.25 53.203125 103.613281 52.558594 103.613281 51.761719 "/>
<path style=" stroke:none;fill-rule:evenodd;fill:rgb(0%,22.399902%,46.299744%);fill-opacity:1;" d="M 107.039063 50.523438 C 107.039063 49.726563 107.679688 49.078125 108.472656 49.078125 C 109.261719 49.078125 109.898438 49.726563 109.898438 50.523438 C 109.898438 51.320313 109.261719 51.96875 108.472656 51.96875 C 107.679688 51.96875 107.039063 51.320313 107.039063 50.523438 "/>
<path style=" stroke:none;fill-rule:evenodd;fill:rgb(0%,22.399902%,46.299744%);fill-opacity:1;" d="M 110.652344 50.398438 C 110.652344 49.601563 111.296875 48.953125 112.085938 48.953125 C 112.871094 48.953125 113.511719 49.601563 113.511719 50.398438 C 113.511719 51.195313 112.871094 51.84375 112.085938 51.84375 C 111.296875 51.84375 110.652344 51.195313 110.652344 50.398438 "/>
<path style=" stroke:none;fill-rule:evenodd;fill:rgb(0%,22.399902%,46.299744%);fill-opacity:1;" d="M 113.964844 51.824219 C 113.964844 51.027344 114.601563 50.378906 115.394531 50.378906 C 116.179688 50.378906 116.820313 51.027344 116.820313 51.824219 C 116.820313 52.621094 116.179688 53.265625 115.394531 53.265625 C 114.601563 53.265625 113.964844 52.621094 113.964844 51.824219 "/>
<path style=" stroke:none;fill-rule:evenodd;fill:rgb(0%,22.399902%,46.299744%);fill-opacity:1;" d="M 116.277344 54.675781 C 116.277344 53.878906 116.917969 53.230469 117.707031 53.230469 C 118.496094 53.230469 119.136719 53.878906 119.136719 54.675781 C 119.136719 55.472656 118.496094 56.121094 117.707031 56.121094 C 116.917969 56.121094 116.277344 55.472656 116.277344 54.675781 "/>
<path style=" stroke:none;fill-rule:evenodd;fill:rgb(0%,22.399902%,46.299744%);fill-opacity:1;" d="M 117.121094 58.195313 C 117.121094 57.398438 117.761719 56.753906 118.550781 56.753906 C 119.34375 56.753906 119.980469 57.398438 119.980469 58.195313 C 119.980469 58.996094 119.34375 59.640625 118.550781 59.640625 C 117.761719 59.640625 117.121094 58.996094 117.121094 58.195313 "/>
<path style=" stroke:none;fill-rule:evenodd;fill:rgb(0%,22.399902%,46.299744%);fill-opacity:1;" d="M 116.933594 61.8125 C 116.933594 61.015625 117.574219 60.367188 118.363281 60.367188 C 119.148438 60.367188 119.792969 61.015625 119.792969 61.8125 C 119.792969 62.605469 119.148438 63.257813 118.363281 63.257813 C 117.574219 63.257813 116.933594 62.605469 116.933594 61.8125 "/>
<path style=" stroke:none;fill-rule:evenodd;fill:rgb(0%,22.399902%,46.299744%);fill-opacity:1;" d="M 115.988281 65.269531 C 115.988281 64.472656 116.628906 63.828125 117.421875 63.828125 C 118.210938 63.828125 118.847656 64.472656 118.847656 65.269531 C 118.847656 66.066406 118.210938 66.714844 117.421875 66.714844 C 116.628906 66.714844 115.988281 66.066406 115.988281 65.269531 "/>
<path style=" stroke:none;fill-rule:evenodd;fill:rgb(0%,22.399902%,46.299744%);fill-opacity:1;" d="M 90.175781 53.214844 C 90.175781 52.417969 90.8125 51.769531 91.601563 51.769531 C 92.390625 51.769531 93.03125 52.417969 93.03125 53.214844 C 93.03125 54.011719 92.390625 54.660156 91.601563 54.660156 C 90.8125 54.660156 90.175781 54.011719 90.175781 53.214844 "/>
<path style=" stroke:none;fill-rule:evenodd;fill:rgb(0%,22.399902%,46.299744%);fill-opacity:1;" d="M 86.835938 51.761719 C 86.835938 50.964844 87.476563 50.316406 88.265625 50.316406 C 89.054688 50.316406 89.691406 50.964844 89.691406 51.761719 C 89.691406 52.558594 89.054688 53.203125 88.265625 53.203125 C 87.476563 53.203125 86.835938 52.558594 86.835938 51.761719 "/>
<path style=" stroke:none;fill-rule:evenodd;fill:rgb(0%,22.399902%,46.299744%);fill-opacity:1;" d="M 83.40625 50.523438 C 83.40625 49.726563 84.042969 49.078125 84.832031 49.078125 C 85.625 49.078125 86.265625 49.726563 86.265625 50.523438 C 86.265625 51.320313 85.625 51.96875 84.832031 51.96875 C 84.042969 51.96875 83.40625 51.320313 83.40625 50.523438 "/>
<path style=" stroke:none;fill-rule:evenodd;fill:rgb(0%,22.399902%,46.299744%);fill-opacity:1;" d="M 79.792969 50.398438 C 79.792969 49.601563 80.429688 48.953125 81.21875 48.953125 C 82.007813 48.953125 82.652344 49.601563 82.652344 50.398438 C 82.652344 51.195313 82.007813 51.84375 81.21875 51.84375 C 80.429688 51.84375 79.792969 51.195313 79.792969 50.398438 "/>
<path style=" stroke:none;fill-rule:evenodd;fill:rgb(0%,22.399902%,46.299744%);fill-opacity:1;" d="M 76.484375 51.824219 C 76.484375 51.027344 77.121094 50.378906 77.910156 50.378906 C 78.699219 50.378906 79.34375 51.027344 79.34375 51.824219 C 79.34375 52.621094 78.699219 53.265625 77.910156 53.265625 C 77.121094 53.265625 76.484375 52.621094 76.484375 51.824219 "/>
<path style=" stroke:none;fill-rule:evenodd;fill:rgb(0%,22.399902%,46.299744%);fill-opacity:1;" d="M 74.167969 54.675781 C 74.167969 53.878906 74.808594 53.230469 75.597656 53.230469 C 76.386719 53.230469 77.027344 53.878906 77.027344 54.675781 C 77.027344 55.472656 76.386719 56.121094 75.597656 56.121094 C 74.808594 56.121094 74.167969 55.472656 74.167969 54.675781 "/>
<path style=" stroke:none;fill-rule:evenodd;fill:rgb(0%,22.399902%,46.299744%);fill-opacity:1;" d="M 73.324219 58.195313 C 73.324219 57.398438 73.960938 56.753906 74.75 56.753906 C 75.542969 56.753906 76.179688 57.398438 76.179688 58.195313 C 76.179688 58.996094 75.542969 59.640625 74.75 59.640625 C 73.960938 59.640625 73.324219 58.996094 73.324219 58.195313 "/>
<path style=" stroke:none;fill-rule:evenodd;fill:rgb(0%,22.399902%,46.299744%);fill-opacity:1;" d="M 73.511719 61.8125 C 73.511719 61.015625 74.152344 60.367188 74.941406 60.367188 C 75.730469 60.367188 76.371094 61.015625 76.371094 61.8125 C 76.371094 62.605469 75.730469 63.257813 74.941406 63.257813 C 74.152344 63.257813 73.511719 62.605469 73.511719 61.8125 "/>
<path style=" stroke:none;fill-rule:evenodd;fill:rgb(0%,22.399902%,46.299744%);fill-opacity:1;" d="M 74.457031 65.269531 C 74.457031 64.472656 75.09375 63.828125 75.882813 63.828125 C 76.675781 63.828125 77.316406 64.472656 77.316406 65.269531 C 77.316406 66.066406 76.675781 66.714844 75.882813 66.714844 C 75.09375 66.714844 74.457031 66.066406 74.457031 65.269531 "/>
<path style=" stroke:none;fill-rule:evenodd;fill:rgb(0%,22.399902%,46.299744%);fill-opacity:1;" d="M 84.179688 66.46875 C 83.753906 66.761719 83.328125 68.410156 84.863281 69.671875 C 85.164063 68.972656 85.507813 68.902344 85.828125 68.972656 C 86.152344 69.042969 86.402344 69.214844 86.578125 69.871094 L 88.734375 69.703125 C 88.769531 69.136719 89.023438 68.761719 89.527344 68.625 C 89.988281 68.539063 90.398438 68.761719 90.746094 69.296875 C 91.058594 68.359375 91.117188 67.152344 90.792969 66.472656 L 93.007813 66.46875 L 93.007813 71.144531 C 94.0625 69.34375 95.554688 69.136719 95.691406 70.644531 C 95.8125 71.964844 94.199219 73.429688 92.660156 73.429688 C 91.121094 73.429688 90.0625 72.773438 88.984375 71.082031 L 86.824219 71.246094 C 86.433594 72.546875 84.410156 73.820313 82.53125 73.148438 C 81.621094 72.824219 80.980469 72.335938 81.195313 71.757813 C 81.449219 71.085938 82.289063 71.632813 82.921875 71.875 C 82.921875 71.875 82.023438 68.882813 81.589844 67.601563 C 81.472656 67.949219 80.945313 69.230469 80.253906 68.832031 C 79.882813 68.621094 80.121094 67.742188 80.550781 66.472656 Z M 85.796875 66.46875 C 85.925781 66.796875 86.082031 67.128906 86.265625 67.464844 C 85.828125 66.929688 85.460938 66.625 85.148438 66.472656 Z M 88.96875 66.46875 C 88.683594 66.765625 88.476563 67.113281 88.378906 67.347656 C 88.445313 67.035156 88.5 66.742188 88.542969 66.472656 Z M 95.199219 66.46875 C 95.449219 66.894531 95.511719 67.269531 95.324219 67.445313 C 95.027344 67.730469 94.191406 67.398438 93.460938 66.703125 C 93.378906 66.621094 93.300781 66.546875 93.230469 66.46875 Z M 100.074219 66.46875 C 100.003906 66.546875 99.925781 66.621094 99.84375 66.703125 C 99.113281 67.398438 98.277344 67.730469 97.980469 67.445313 C 97.792969 67.269531 97.855469 66.894531 98.105469 66.472656 Z M 102.503906 66.46875 C 102.183594 67.152344 102.238281 68.359375 102.550781 69.296875 C 102.894531 68.761719 103.308594 68.539063 103.769531 68.625 C 104.273438 68.761719 104.527344 69.136719 104.5625 69.703125 L 106.71875 69.871094 C 106.894531 69.214844 107.144531 69.042969 107.46875 68.972656 C 107.789063 68.902344 108.132813 68.972656 108.433594 69.671875 C 109.96875 68.410156 109.542969 66.761719 109.113281 66.46875 L 112.753906 66.46875 C 113.183594 67.742188 113.421875 68.621094 113.050781 68.832031 C 112.359375 69.230469 111.832031 67.949219 111.714844 67.601563 C 111.28125 68.882813 110.382813 71.875 110.382813 71.875 C 111.015625 71.632813 111.855469 71.085938 112.109375 71.757813 C 112.324219 72.335938 111.683594 72.824219 110.773438 73.148438 C 108.890625 73.820313 106.871094 72.546875 106.476563 71.246094 L 104.320313 71.082031 C 103.242188 72.773438 102.183594 73.429688 100.644531 73.429688 C 99.105469 73.429688 97.492188 71.964844 97.613281 70.644531 C 97.75 69.136719 99.242188 69.34375 100.296875 71.144531 L 100.296875 66.46875 Z M 104.753906 66.46875 C 104.796875 66.742188 104.851563 67.035156 104.917969 67.347656 C 104.820313 67.113281 104.609375 66.765625 104.328125 66.472656 Z M 108.148438 66.46875 C 107.839844 66.625 107.46875 66.929688 107.03125 67.464844 C 107.214844 67.128906 107.371094 66.796875 107.5 66.472656 L 108.148438 66.46875 "/>
<path style=" stroke:none;fill-rule:evenodd;fill:rgb(0%,22.399902%,46.299744%);fill-opacity:1;" d="M 80.550781 66.46875 C 80.640625 66.195313 80.746094 65.898438 80.851563 65.585938 L 78.542969 66.289063 C 78.542969 66.289063 76.75 63.816406 76.582031 59.527344 C 76.328125 53.167969 80.667969 52.101563 82.574219 52.078125 C 84.621094 52.054688 85.5625 52.589844 87.445313 53.332031 C 89.328125 54.074219 90.636719 55.1875 94.359375 55.605469 L 94.105469 57.460938 C 90.339844 57.460938 86.800781 54.757813 83.285156 54.734375 C 79.40625 54.707031 78.875 58.621094 78.925781 59.828125 C 78.96875 61.035156 79.039063 62.3125 79.84375 64.007813 C 80.003906 63.03125 80.707031 60.085938 81.75 59.574219 C 84.664063 58.367188 87.585938 59.386719 87.585938 59.386719 C 90.9375 58.34375 93.761719 58.34375 93.761719 58.34375 L 93.773438 54.492188 L 95.082031 53.945313 L 95.082031 64.425781 L 98.222656 64.425781 L 98.222656 53.945313 L 99.53125 54.492188 L 99.542969 58.34375 C 99.542969 58.34375 102.367188 58.34375 105.722656 59.386719 C 105.722656 59.386719 108.640625 58.367188 111.554688 59.574219 C 112.683594 60.085938 113.300781 63.03125 113.464844 64.007813 C 114.265625 62.3125 114.335938 61.035156 114.378906 59.828125 C 114.425781 58.621094 113.898438 54.707031 110.015625 54.734375 C 106.503906 54.757813 102.964844 57.460938 99.199219 57.460938 L 98.945313 55.605469 C 102.667969 55.1875 103.972656 54.074219 105.859375 53.332031 C 107.742188 52.589844 108.683594 52.054688 110.726563 52.078125 C 112.636719 52.101563 116.976563 53.167969 116.722656 59.527344 C 116.554688 63.816406 114.761719 66.289063 114.761719 66.289063 L 112.453125 65.585938 C 112.558594 65.898438 112.660156 66.195313 112.753906 66.472656 L 109.113281 66.46875 C 109.101563 66.457031 109.089844 66.449219 109.074219 66.445313 C 108.835938 66.328125 108.535156 66.28125 108.148438 66.472656 L 107.5 66.46875 C 108.320313 64.371094 107.957031 62.597656 106.503906 61.429688 C 104.703125 63.101563 104.335938 64.003906 104.753906 66.472656 L 104.328125 66.46875 C 104.023438 66.15625 103.636719 65.90625 103.195313 65.933594 C 102.875 65.949219 102.648438 66.15625 102.503906 66.472656 L 100.296875 66.46875 L 100.296875 66.203125 C 100.226563 66.292969 100.152344 66.378906 100.074219 66.46875 L 98.105469 66.46875 C 98.257813 66.214844 98.480469 65.933594 98.757813 65.667969 C 98.9375 65.496094 99.105469 65.34375 99.292969 65.222656 L 94.011719 65.222656 C 94.199219 65.34375 94.367188 65.496094 94.546875 65.667969 C 94.824219 65.933594 95.046875 66.210938 95.199219 66.472656 L 93.230469 66.46875 C 93.152344 66.378906 93.078125 66.292969 93.007813 66.203125 L 93.007813 66.46875 L 90.792969 66.46875 C 90.648438 66.15625 90.421875 65.949219 90.101563 65.933594 C 89.660156 65.90625 89.273438 66.15625 88.96875 66.472656 L 88.542969 66.46875 C 88.960938 64.003906 88.59375 63.101563 86.796875 61.429688 C 85.339844 62.597656 84.976563 64.371094 85.796875 66.472656 L 85.148438 66.46875 C 84.761719 66.28125 84.464844 66.328125 84.21875 66.445313 C 84.207031 66.449219 84.195313 66.457031 84.179688 66.46875 L 80.550781 66.46875 "/>
<path style=" stroke:none;fill-rule:evenodd;fill:rgb(0%,22.399902%,46.299744%);fill-opacity:1;" d="M 111.992188 76.105469 L 112.269531 73.40625 C 112.269531 73.40625 111.269531 74.484375 109.523438 74.4375 C 107.777344 74.390625 106.203125 73.125 105.515625 72.105469 C 105.378906 71.875 105.183594 71.863281 105.03125 72.117188 C 103.972656 73.554688 103.035156 74.609375 100.460938 74.609375 C 97.890625 74.609375 96.925781 72.988281 96.601563 72.523438 C 96.28125 72.988281 95.316406 74.609375 92.742188 74.609375 C 90.171875 74.609375 89.230469 73.554688 88.171875 72.117188 C 88.023438 71.863281 87.828125 71.875 87.6875 72.105469 C 87 73.125 85.425781 74.390625 83.679688 74.4375 C 81.933594 74.484375 80.9375 73.40625 80.9375 73.40625 L 81.210938 76.105469 L 111.992188 76.105469 "/>
<path style=" stroke:none;fill-rule:evenodd;fill:rgb(0%,22.399902%,46.299744%);fill-opacity:1;" d="M 81.765625 83.628906 C 80.664063 83.628906 79.769531 82.777344 79.769531 81.730469 C 79.769531 80.679688 80.664063 79.828125 81.765625 79.828125 L 111.441406 79.828125 C 112.546875 79.828125 113.4375 80.679688 113.4375 81.730469 C 113.4375 82.777344 112.546875 83.628906 111.441406 83.628906 L 81.765625 83.628906 "/>
<path style=" stroke:none;fill-rule:evenodd;fill:rgb(0%,22.399902%,46.299744%);fill-opacity:1;" d="M 83.855469 79.066406 L 83.855469 76.90625 L 81.210938 76.90625 L 80.292969 77.976563 L 81.210938 79.066406 L 83.855469 79.066406 "/>
<path style=" stroke:none;fill-rule:evenodd;fill:rgb(0%,22.399902%,46.299744%);fill-opacity:1;" d="M 86.257813 77.988281 C 86.257813 77.335938 87.300781 76.808594 88.582031 76.808594 C 89.863281 76.808594 90.90625 77.335938 90.90625 77.988281 C 90.90625 78.640625 89.863281 79.164063 88.582031 79.164063 C 87.300781 79.164063 86.257813 78.640625 86.257813 77.988281 "/>
<path style=" stroke:none;fill-rule:evenodd;fill:rgb(0%,22.399902%,46.299744%);fill-opacity:1;" d="M 109.351563 79.066406 L 109.351563 76.90625 L 111.992188 76.90625 L 112.910156 77.976563 L 111.992188 79.066406 L 109.351563 79.066406 "/>
<path style=" stroke:none;fill-rule:evenodd;fill:rgb(0%,22.399902%,46.299744%);fill-opacity:1;" d="M 102.300781 77.988281 C 102.300781 77.335938 103.339844 76.808594 104.625 76.808594 C 105.90625 76.808594 106.945313 77.335938 106.945313 77.988281 C 106.945313 78.640625 105.90625 79.164063 104.625 79.164063 C 103.339844 79.164063 102.300781 78.640625 102.300781 77.988281 "/>
<path style=" stroke:none;fill-rule:evenodd;fill:rgb(0%,22.399902%,46.299744%);fill-opacity:1;" d="M 93.683594 76.90625 L 99.519531 76.90625 L 99.519531 79.066406 L 93.683594 79.066406 L 93.683594 76.90625 "/>
<path style=" stroke:none;fill-rule:evenodd;fill:rgb(0%,22.399902%,46.299744%);fill-opacity:1;" d="M 3.09375 92.230469 L 190.179688 92.230469 L 190.179688 138.597656 L 3.09375 138.597656 L 3.09375 92.230469 "/>
<path style=" stroke:none;fill-rule:evenodd;fill:rgb(100%,100%,100%);fill-opacity:1;" d="M 168.539063 99.921875 C 167.328125 99.921875 166.34375 100.917969 166.34375 102.144531 C 166.34375 103.367188 167.328125 104.367188 168.539063 104.367188 C 169.753906 104.367188 170.738281 103.367188 170.738281 102.144531 C 170.738281 100.917969 169.753906 99.921875 168.539063 99.921875 Z M 168.539063 102.824219 C 168.167969 102.824219 167.863281 102.519531 167.863281 102.144531 C 167.863281 101.765625 168.167969 101.464844 168.539063 101.464844 C 168.910156 101.464844 169.214844 101.765625 169.214844 102.144531 C 169.214844 102.519531 168.910156 102.824219 168.539063 102.824219 "/>
<path style=" stroke:none;fill-rule:evenodd;fill:rgb(100%,100%,100%);fill-opacity:1;" d="M 50.050781 108.832031 C 48.183594 106.941406 45.699219 105.902344 43.050781 105.902344 C 37.59375 105.902344 33.15625 110.386719 33.15625 115.902344 C 33.15625 118.570313 34.183594 121.082031 36.054688 122.972656 C 37.925781 124.859375 40.410156 125.902344 43.050781 125.902344 C 45.699219 125.902344 48.183594 124.859375 50.050781 122.972656 C 51.921875 121.082031 52.949219 118.570313 52.949219 115.902344 C 52.949219 113.230469 51.921875 110.71875 50.050781 108.832031 Z M 48.84375 121.75 C 47.296875 123.3125 45.242188 124.171875 43.050781 124.171875 C 40.867188 124.171875 38.8125 123.3125 37.265625 121.75 C 35.71875 120.191406 34.867188 118.109375 34.867188 115.902344 C 34.867188 111.339844 38.539063 107.628906 43.050781 107.628906 C 45.242188 107.628906 47.296875 108.488281 48.84375 110.054688 C 50.390625 111.617188 51.242188 113.691406 51.242188 115.902344 C 51.242188 118.109375 50.390625 120.191406 48.84375 121.75 "/>
<path style=" stroke:none;fill-rule:evenodd;fill:rgb(100%,100%,100%);fill-opacity:1;" d="M 48.378906 110.519531 C 46.957031 109.085938 45.066406 108.292969 43.050781 108.292969 C 41.039063 108.292969 39.148438 109.085938 37.726563 110.519531 C 36.304688 111.957031 35.519531 113.867188 35.519531 115.902344 C 35.519531 117.933594 36.304688 119.84375 37.726563 121.28125 C 39.148438 122.71875 41.039063 123.511719 43.050781 123.511719 C 47.207031 123.511719 50.585938 120.097656 50.585938 115.902344 C 50.585938 113.867188 49.800781 111.957031 48.378906 110.519531 Z M 43.050781 121.785156 C 41.5 121.785156 40.035156 121.171875 38.9375 120.0625 C 37.839844 118.949219 37.230469 117.472656 37.230469 115.902344 C 37.230469 114.332031 37.839844 112.855469 38.9375 111.742188 C 40.035156 110.628906 41.5 110.019531 43.050781 110.019531 C 44.609375 110.019531 46.070313 110.628906 47.171875 111.742188 C 48.269531 112.855469 48.878906 114.332031 48.878906 115.902344 C 48.878906 119.144531 46.265625 121.785156 43.050781 121.785156 "/>
<path style=" stroke:none;fill-rule:evenodd;fill:rgb(100%,100%,100%);fill-opacity:1;" d="M 69.640625 106.476563 L 69.640625 123.945313 C 69.640625 125.683594 68.96875 127.316406 67.753906 128.542969 C 66.542969 129.769531 64.925781 130.449219 63.207031 130.449219 C 61.488281 130.449219 59.875 129.769531 58.65625 128.542969 C 57.785156 127.664063 57.203125 126.574219 56.9375 125.390625 L 55.195313 125.390625 C 55.484375 127.035156 56.253906 128.554688 57.449219 129.765625 C 58.988281 131.320313 61.03125 132.175781 63.207031 132.175781 C 65.382813 132.175781 67.425781 131.320313 68.964844 129.765625 C 70.503906 128.210938 71.351563 126.144531 71.351563 123.945313 L 71.351563 106.476563 L 69.640625 106.476563 "/>
<path style=" stroke:none;fill-rule:evenodd;fill:rgb(100%,100%,100%);fill-opacity:1;" d="M 63.207031 124.308594 C 64.652344 124.308594 66.042969 123.894531 67.273438 123.140625 L 67.273438 123.945313 C 67.273438 126.210938 65.449219 128.054688 63.207031 128.054688 C 62.121094 128.054688 61.101563 127.632813 60.328125 126.851563 C 59.914063 126.433594 59.609375 125.929688 59.40625 125.390625 L 57.613281 125.390625 C 57.863281 126.394531 58.375 127.320313 59.121094 128.074219 C 60.214844 129.175781 61.664063 129.785156 63.207031 129.785156 C 66.394531 129.785156 68.984375 127.164063 68.984375 123.945313 L 68.984375 118.722656 C 68.652344 119.441406 68.199219 120.109375 67.636719 120.679688 C 66.421875 121.90625 64.851563 122.582031 63.207031 122.582031 C 61.488281 122.582031 59.875 121.90625 58.65625 120.679688 C 57.441406 119.449219 56.773438 117.816406 56.773438 116.082031 L 56.773438 106.476563 L 55.066406 106.476563 L 55.066406 116.082031 C 55.066406 118.28125 55.910156 120.34375 57.449219 121.898438 C 58.988281 123.453125 61.03125 124.308594 63.207031 124.308594 "/>
<path style=" stroke:none;fill-rule:evenodd;fill:rgb(100%,100%,100%);fill-opacity:1;" d="M 59.121094 120.207031 C 60.214844 121.3125 61.664063 121.917969 63.207031 121.917969 C 66.339844 121.917969 68.984375 119.132813 68.984375 115.835938 L 68.984375 106.476563 L 67.273438 106.476563 L 67.273438 115.835938 C 67.273438 118.15625 65.375 120.191406 63.207031 120.191406 C 62.121094 120.191406 61.101563 119.765625 60.328125 118.988281 C 59.5625 118.210938 59.140625 117.179688 59.140625 116.082031 L 59.140625 106.476563 L 57.429688 106.476563 L 57.429688 116.082031 C 57.429688 117.640625 58.03125 119.105469 59.121094 120.207031 "/>
<path style=" stroke:none;fill-rule:evenodd;fill:rgb(100%,100%,100%);fill-opacity:1;" d="M 98.933594 100.378906 L 100.644531 100.378906 L 100.644531 125.386719 L 98.933594 125.386719 L 98.933594 100.378906 "/>
<path style=" stroke:none;fill-rule:evenodd;fill:rgb(100%,100%,100%);fill-opacity:1;" d="M 96.566406 100.378906 L 98.277344 100.378906 L 98.277344 125.386719 L 96.566406 125.386719 L 96.566406 100.378906 "/>
<path style=" stroke:none;fill-rule:evenodd;fill:rgb(100%,100%,100%);fill-opacity:1;" d="M 168.855469 106.457031 L 170.566406 106.457031 L 170.566406 125.390625 L 168.855469 125.390625 L 168.855469 106.457031 "/>
<path style=" stroke:none;fill-rule:evenodd;fill:rgb(100%,100%,100%);fill-opacity:1;" d="M 166.488281 106.457031 L 168.199219 106.457031 L 168.199219 125.390625 L 166.488281 125.390625 L 166.488281 106.457031 "/>
<path style=" stroke:none;fill-rule:evenodd;fill:rgb(100%,100%,100%);fill-opacity:1;" d="M 176.601563 100.378906 L 178.3125 100.378906 L 178.3125 125.386719 L 176.601563 125.386719 L 176.601563 100.378906 "/>
<path style=" stroke:none;fill-rule:evenodd;fill:rgb(100%,100%,100%);fill-opacity:1;" d="M 174.238281 100.378906 L 175.945313 100.378906 L 175.945313 125.386719 L 174.238281 125.386719 L 174.238281 100.378906 "/>
<path style=" stroke:none;fill-rule:evenodd;fill:rgb(100%,100%,100%);fill-opacity:1;" d="M 78.480469 110.925781 C 77.101563 112.316406 76.34375 114.167969 76.34375 116.136719 C 76.34375 118.105469 77.101563 119.957031 78.480469 121.351563 C 79.855469 122.746094 81.691406 123.511719 83.640625 123.511719 C 87.664063 123.511719 90.9375 120.203125 90.9375 116.136719 L 90.9375 108.765625 L 83.640625 108.765625 C 81.691406 108.765625 79.855469 109.53125 78.480469 110.925781 Z M 89.226563 116.136719 C 89.226563 119.253906 86.722656 121.785156 83.640625 121.785156 C 82.148438 121.785156 80.742188 121.195313 79.6875 120.128906 C 78.636719 119.0625 78.050781 117.648438 78.050781 116.136719 C 78.050781 114.628906 78.636719 113.210938 79.6875 112.144531 C 80.742188 111.078125 82.148438 110.492188 83.640625 110.492188 L 89.226563 110.492188 L 89.226563 116.136719 "/>
<path style=" stroke:none;fill-rule:evenodd;fill:rgb(100%,100%,100%);fill-opacity:1;" d="M 83.640625 106.375 C 78.3125 106.375 73.976563 110.753906 73.976563 116.136719 C 73.976563 118.746094 74.980469 121.195313 76.808594 123.039063 C 78.632813 124.882813 81.058594 125.902344 83.640625 125.902344 C 85.671875 125.902344 87.605469 125.261719 89.226563 124.09375 L 89.226563 125.390625 L 90.9375 125.390625 L 90.9375 119.328125 C 90.542969 120.246094 89.984375 121.09375 89.265625 121.820313 C 87.761719 123.335938 85.765625 124.171875 83.640625 124.171875 C 81.515625 124.171875 79.519531 123.335938 78.015625 121.820313 C 76.515625 120.300781 75.6875 118.285156 75.6875 116.136719 C 75.6875 111.707031 79.253906 108.101563 83.640625 108.101563 L 91.589844 108.101563 L 91.589844 125.390625 L 93.304688 125.390625 L 93.304688 106.375 L 83.640625 106.375 "/>
<path style=" stroke:none;fill-rule:evenodd;fill:rgb(100%,100%,100%);fill-opacity:1;" d="M 148.257813 110.925781 C 146.878906 112.316406 146.117188 114.167969 146.117188 116.136719 C 146.117188 118.105469 146.878906 119.957031 148.257813 121.351563 C 149.632813 122.746094 151.46875 123.511719 153.414063 123.511719 C 157.4375 123.511719 160.714844 120.203125 160.714844 116.136719 L 160.714844 108.765625 L 153.414063 108.765625 C 151.46875 108.765625 149.632813 109.53125 148.257813 110.925781 Z M 159.003906 116.136719 C 159.003906 119.253906 156.496094 121.785156 153.414063 121.785156 C 151.925781 121.785156 150.519531 121.195313 149.464844 120.128906 C 148.40625 119.0625 147.828125 117.648438 147.828125 116.136719 C 147.828125 114.628906 148.40625 113.210938 149.464844 112.144531 C 150.519531 111.078125 151.925781 110.492188 153.414063 110.492188 L 159.003906 110.492188 L 159.003906 116.136719 "/>
<path style=" stroke:none;fill-rule:evenodd;fill:rgb(100%,100%,100%);fill-opacity:1;" d="M 153.414063 106.375 C 148.089844 106.375 143.753906 110.753906 143.753906 116.136719 C 143.753906 118.746094 144.757813 121.195313 146.585938 123.039063 C 148.40625 124.882813 150.835938 125.902344 153.414063 125.902344 C 155.449219 125.902344 157.382813 125.261719 159.003906 124.09375 L 159.003906 125.390625 L 160.714844 125.390625 L 160.714844 119.328125 C 160.320313 120.246094 159.757813 121.09375 159.039063 121.820313 C 157.535156 123.335938 155.539063 124.171875 153.414063 124.171875 C 151.292969 124.171875 149.296875 123.335938 147.792969 121.820313 C 146.289063 120.300781 145.464844 118.285156 145.464844 116.136719 C 145.464844 111.707031 149.03125 108.101563 153.414063 108.101563 L 161.367188 108.101563 L 161.367188 125.390625 L 163.078125 125.390625 L 163.078125 106.375 L 153.414063 106.375 "/>
<path style=" stroke:none;fill-rule:evenodd;fill:rgb(100%,100%,100%);fill-opacity:1;" d="M 26.898438 116.460938 C 27.824219 116.074219 28.671875 115.496094 29.417969 114.742188 C 31.046875 113.101563 32.015625 110.757813 32.015625 108.476563 C 32.015625 106.308594 31.136719 104.183594 29.609375 102.636719 C 28.105469 101.117188 26.144531 100.3125 23.941406 100.3125 L 15.277344 100.3125 L 15.277344 125.351563 L 16.984375 125.351563 L 16.984375 102.042969 L 23.941406 102.042969 C 25.683594 102.042969 27.222656 102.671875 28.402344 103.859375 C 29.59375 105.0625 30.304688 106.789063 30.304688 108.476563 C 30.304688 110.28125 29.503906 112.214844 28.210938 113.519531 C 27.0625 114.679688 25.605469 115.296875 24 115.316406 L 31.023438 125.34375 L 33.121094 125.34375 L 26.898438 116.460938 "/>
<path style=" stroke:none;fill-rule:evenodd;fill:rgb(100%,100%,100%);fill-opacity:1;" d="M 22.738281 114.65625 L 23.941406 114.65625 C 27.664063 114.65625 29.652344 111.066406 29.652344 108.476563 C 29.652344 106.960938 29.011719 105.410156 27.9375 104.324219 C 26.886719 103.265625 25.503906 102.707031 23.941406 102.707031 L 17.640625 102.707031 L 17.640625 125.351563 L 19.351563 125.351563 L 19.351563 104.433594 L 23.941406 104.433594 C 25.058594 104.433594 25.996094 104.804688 26.726563 105.546875 C 27.488281 106.316406 27.941406 107.410156 27.941406 108.476563 C 27.941406 110.34375 26.550781 112.929688 23.941406 112.929688 L 19.433594 112.929688 L 28.125 125.34375 L 30.222656 125.34375 L 22.738281 114.65625 "/>
<path style=" stroke:none;fill-rule:evenodd;fill:rgb(100%,100%,100%);fill-opacity:1;" d="M 138.28125 100.382813 L 136.546875 100.382813 L 140.960938 125.425781 L 142.695313 125.425781 L 138.28125 100.382813 "/>
<path style=" stroke:none;fill-rule:evenodd;fill:rgb(100%,100%,100%);fill-opacity:1;" d="M 126.980469 115.304688 L 120.140625 100.382813 L 118.265625 100.382813 L 126.980469 119.414063 L 135.703125 100.382813 L 133.820313 100.382813 L 126.980469 115.304688 "/>
<path style=" stroke:none;fill-rule:evenodd;fill:rgb(100%,100%,100%);fill-opacity:1;" d="M 111.265625 125.425781 L 113.003906 125.425781 L 117.417969 100.382813 L 115.675781 100.382813 L 111.265625 125.425781 "/>
<path style=" stroke:none;fill-rule:evenodd;fill:rgb(100%,100%,100%);fill-opacity:1;" d="M 126.980469 120.992188 L 117.933594 101.230469 L 113.671875 125.425781 L 115.40625 125.425781 L 118.664063 106.941406 L 126.980469 125.105469 L 135.300781 106.941406 L 138.558594 125.425781 L 140.296875 125.425781 L 136.035156 101.230469 L 126.980469 120.992188 "/>
</g>
</svg>
