<?xml version="1.0" encoding="UTF-8" standalone="no"?>
<svg
   xmlns:dc="http://purl.org/dc/elements/1.1/"
   xmlns:cc="http://creativecommons.org/ns#"
   xmlns:rdf="http://www.w3.org/1999/02/22-rdf-syntax-ns#"
   xmlns:svg="http://www.w3.org/2000/svg"
   xmlns="http://www.w3.org/2000/svg"
   viewBox="0 0 682.66669 682.66669"
   height="682.66669"
   width="682.66669"
   xml:space="preserve"
   id="svg2"
   version="1.1"><metadata
     id="metadata8"><rdf:RDF><cc:Work
         rdf:about=""><dc:format>image/svg+xml</dc:format><dc:type
           rdf:resource="http://purl.org/dc/dcmitype/StillImage" /></cc:Work></rdf:RDF></metadata><defs
     id="defs6"><clipPath
       id="clipPath18"
       clipPathUnits="userSpaceOnUse"><path
         id="path16"
         d="M 0,512 H 512 V 0 H 0 Z" /></clipPath></defs><g
     transform="matrix(1.3333333,0,0,-1.3333333,0,682.66667)"
     id="g10"><g
       id="g12"><g
         clip-path="url(#clipPath18)"
         id="g14"><g
           transform="translate(141.5766,291.4975)"
           id="g20"><path
             id="path22"
             style="fill:#f37636;fill-opacity:1;fill-rule:nonzero;stroke:none"
             d="m 0,0 c 1.195,0 2.161,-0.966 2.161,-2.161 v -13.748 c 0,-1.196 -0.966,-2.167 -2.161,-2.167 h -15.786 c -2.037,0 -4.086,0.294 -4.086,0.294 v -54.481 c 0,-1.196 -0.954,-2.167 -2.149,-2.167 h -17.14 c -1.178,0 -2.149,0.971 -2.149,2.167 v 54.481 c 0,0 -1.513,-0.265 -3.174,-0.294 h -16.704 c -1.195,0 -2.173,0.971 -2.173,2.167 v 13.748 c 0,1.195 0.978,2.161 2.173,2.161 z" /></g><g
           transform="translate(431.5708,291.5259)"
           id="g24"><path
             id="path26"
             style="fill:#f37636;fill-opacity:1;fill-rule:nonzero;stroke:none"
             d="m 0,0 c 1.177,0 2.161,-0.966 2.161,-2.149 v -13.778 c 0,-1.178 -0.984,-2.149 -2.161,-2.149 h -15.803 c -2.026,0 -4.057,0.294 -4.057,0.294 v -54.481 c 0,-1.196 -0.972,-2.167 -2.179,-2.167 h -17.104 c -1.213,0 -2.179,0.971 -2.179,2.167 v 54.481 c 0,0 -1.496,-0.265 -3.18,-0.294 h -16.686 c -1.178,0 -2.161,0.971 -2.161,2.149 v 13.778 c 0,1.183 0.983,2.149 2.161,2.149 z" /></g><g
           transform="translate(401.0065,192.4217)"
           id="g28"><path
             id="path30"
             style="fill:#f37636;fill-opacity:1;fill-rule:nonzero;stroke:none"
             d="m 0,0 c -34.922,0 -63.284,28.527 -63.284,63.573 0,35.056 28.362,63.554 63.284,63.554 34.874,0 63.29,-28.498 63.29,-63.554 C 63.29,28.527 34.874,0 0,0 m -145.01,0 c -34.903,0 -63.301,28.527 -63.301,63.573 0,35.056 28.398,63.554 63.301,63.554 34.893,0 63.308,-28.498 63.308,-63.554 C -81.702,28.527 -110.117,0 -145.01,0 m -145.014,0 c -34.893,0 -63.29,28.527 -63.29,63.573 0,35.056 28.397,63.554 63.29,63.554 34.892,0 63.289,-28.498 63.289,-63.554 C -226.735,28.527 -255.132,0 -290.024,0 M 0,145.639 c -31.501,0 -58.874,-17.988 -72.499,-44.254 -13.654,26.266 -41.016,44.254 -72.511,44.254 -31.494,0 -58.861,-17.988 -72.498,-44.254 -13.637,26.266 -41.022,44.254 -72.516,44.254 -45.055,0 -81.702,-36.817 -81.702,-82.066 0,-45.244 36.647,-82.056 81.702,-82.056 31.494,0 58.879,17.994 72.516,44.278 13.637,-26.284 41.004,-44.278 72.498,-44.278 31.495,0 58.857,17.994 72.511,44.278 13.625,-26.284 40.998,-44.278 72.499,-44.278 45.06,0 81.713,36.812 81.713,82.056 0,45.249 -36.653,82.066 -81.713,82.066" /></g><g
           transform="translate(287.5697,292.8603)"
           id="g32"><path
             id="path34"
             style="fill:#f37636;fill-opacity:1;fill-rule:nonzero;stroke:none"
             d="m 0,0 c 1.313,0 2.255,-0.995 2.255,-2.19 v -69.332 c 0,-1.207 -0.977,-2.178 -2.185,-2.178 h -14.313 c -0.819,0 -1.89,0.548 -2.385,1.207 0,0 -25.913,35.328 -26.572,36.247 -0.878,1.177 -1.737,3.361 -1.737,3.361 v -38.637 c 0,-1.207 -0.983,-2.178 -2.167,-2.178 h -16.139 c -1.183,0 -2.143,0.971 -2.143,2.178 V -2.19 c 0,1.195 0.96,2.161 2.143,2.161 h 14.32 c 0.842,0 1.913,-0.548 2.402,-1.202 0,0 25.471,-34.727 26.555,-36.24 0.871,-1.184 1.76,-3.362 1.76,-3.362 V -2.19 c 0,1.195 0.966,2.161 2.161,2.161 0,0 15.014,0.029 16.045,0.029" /></g></g></g></g></svg>